<?xml version="1.0" standalone="no"?>
<!DOCTYPE svg PUBLIC "-//W3C//DTD SVG 1.1//EN" "http://www.w3.org/Graphics/SVG/1.1/DTD/svg11.dtd" >
<svg xmlns="http://www.w3.org/2000/svg">
<metadata>
Created by FontForge 20120731 at Wed Jul 26 17:28:41 2017
 By admin
</metadata>
<defs>
<font id="iconfont" horiz-adv-x="1024" >
  <font-face 
    font-family="iconfont"
    font-weight="500"
    font-stretch="normal"
    units-per-em="1024"
    panose-1="2 0 6 3 0 0 0 0 0 0"
    ascent="896"
    descent="-128"
    x-height="792"
    bbox="-0.6 -212 1456.21 967"
    underline-thickness="0"
    underline-position="0"
    unicode-range="U+0078-E947"
  />
<missing-glyph 
 />
    <glyph glyph-name=".notdef" 
 />
    <glyph glyph-name=".notdef" 
 />
    <glyph glyph-name=".null" horiz-adv-x="0" 
 />
    <glyph glyph-name="nonmarkingreturn" horiz-adv-x="341" 
 />
    <glyph glyph-name="x" unicode="x" horiz-adv-x="1001" 
d="M281 543q-27 -1 -53 -1h-83q-18 0 -36.5 -6t-32.5 -18.5t-23 -32t-9 -45.5v-76h912v41q0 16 -0.5 30t-0.5 18q0 13 -5 29t-17 29.5t-31.5 22.5t-49.5 9h-133v-97h-438v97zM955 310v-52q0 -23 0.5 -52t0.5 -58t-10.5 -47.5t-26 -30t-33 -16t-31.5 -4.5q-14 -1 -29.5 -0.5
t-29.5 0.5h-32l-45 128h-439l-44 -128h-29h-34q-20 0 -45 1q-25 0 -41 9.5t-25.5 23t-13.5 29.5t-4 30v167h911zM163 247q-12 0 -21 -8.5t-9 -21.5t9 -21.5t21 -8.5q13 0 22 8.5t9 21.5t-9 21.5t-22 8.5zM316 123q-8 -26 -14 -48q-5 -19 -10.5 -37t-7.5 -25t-3 -15t1 -14.5
t9.5 -10.5t21.5 -4h37h67h81h80h64h36q23 0 34 12t2 38q-5 13 -9.5 30.5t-9.5 34.5q-5 19 -11 39h-368zM336 498v228q0 11 2.5 23t10 21.5t20.5 15.5t34 6h188q31 0 51.5 -14.5t20.5 -52.5v-227h-327z" />
    <glyph glyph-name="search" unicode="&#xe652;" 
d="M917 -103l-244 244q97 102 97 242q0 96 -47 177t-128 128t-176.5 47t-176.5 -47t-128.5 -128t-47.5 -176.5t47.5 -176.5t128.5 -128.5t176 -47.5q114 0 207 68l247 -247q10 -9 23 -9t22.5 9t9.5 22.5t-10 22.5zM418.5 89q-119.5 0 -204 84.5t-84.5 203.5t84.5 203.5
t204 84.5t203.5 -84.5t84 -203.5t-84 -203.5t-203.5 -84.5z" />
    <glyph glyph-name="guanbi2" unicode="&#xe605;" 
d="M551 321l324 325q8 8 8 19.5t-8 20t-19.5 8.5t-20.5 -9l-324 -324l-324 324q-9 9 -20.5 9t-19.5 -8.5t-8 -20t8 -19.5l324 -325l-324 -324q-8 -8 -8 -19.5t8 -20t19.5 -8.5t20.5 8l324 325l324 -325q9 -8 20.5 -8t19.5 8.5t8 20t-8 19.5z" />
    <glyph glyph-name="weixin" unicode="&#xe882;" 
d="M781 238q-16 0 -27.5 11.5t-11.5 27.5t11.5 27.5t27.5 11.5t27.5 -11.5t11.5 -27.5t-11.5 -27.5t-27.5 -11.5zM581.5 238q-16.5 0 -27.5 11.5t-11 27.5t11 27.5t27.5 11.5t27.5 -11.5t11 -27.5t-11 -27.5t-27.5 -11.5zM959 182q0 95 -74 164t-182 76h-20
q-115 0 -195.5 -70t-80.5 -170q0 -29 8 -58q22 -79 97 -130.5t171 -51.5q65 0 122 25l62 -43q1 0 2 -0.5t4 -1.5t5 -0.5t3.5 4t0.5 9.5l-17 66q44 34 69 81t25 100zM260 452q-16 0 -27.5 11.5t-11.5 28t11.5 28t27.5 11.5t27.5 -11.5t11.5 -28t-11.5 -28t-27.5 -11.5z
M504 531q16 0 27.5 -11.5t11.5 -28t-11.5 -28t-27.5 -11.5t-27.5 11.5t-11.5 28t11.5 28t27.5 11.5zM683 442h17q-17 101 -106.5 169t-209.5 68q-87 0 -160.5 -37t-116.5 -101t-43 -140q0 -63 30.5 -118.5t84.5 -94.5l-24 -89q0 -1 -0.5 -3t-0.5 -7t2.5 -6.5t7 -3t13.5 2.5
l89 61q57 -20 118 -20h5.5h5.5q-8 29 -8 59q0 108 86.5 184t209.5 76v0z" />
    <glyph glyph-name="jinggao" unicode="&#xe63b;" 
d="M512 748q-91 0 -174 -35.5t-143 -95.5t-95.5 -143t-35.5 -174t35.5 -174t95.5 -143t143 -95t174 -35t174 35t142.5 95t95 143t35.5 174t-35.5 174t-95 143t-142.5 95.5t-174 35.5zM512 20q-23 0 -39.5 16.5t-16.5 40t16.5 39.5t39.5 16t39.5 -16t16.5 -39.5t-16.5 -40
t-39.5 -16.5zM568 244q0 -23 -16.5 -39.5t-39.5 -16.5t-39.5 16.5t-16.5 39.5v280q0 23 16.5 39.5t39.5 16.5t39.5 -16.5t16.5 -39.5v-280z" />
    <glyph glyph-name="shuaxin" unicode="&#xe624;" 
d="M957 171q0 1 -1 3t-3 4q-4 5 -9 8v1.5t1 1.5h-293q-12 0 -20 -8t-8 -20t8 -20t20 -8h213q-48 -101 -143 -162.5t-210 -61.5q-147 0 -257 96.5t-130 239.5h-57q14 -109 76 -198.5t159 -141.5t209 -52q124 0 228.5 63t162.5 168v-203q0 -11 8.5 -19.5t20 -8.5t19.5 8.5
t8 19.5v280q0 4 -2 10zM80 416q0 -1 -0.5 -2l-0.5 -1h293q12 0 20 8t8 19.5t-8 20t-20 8.5h-214q48 101 143.5 162t210.5 61q147 0 256.5 -96t130.5 -239h56q-13 109 -75 198.5t-159 141t-209 51.5q-124 0 -228.5 -63t-163.5 -168v203q0 12 -8 20t-19.5 8t-20 -8t-8.5 -20
v-279q0 -5 2 -10q1 -1 2 -3t3 -4q4 -5 9 -8z" />
    <glyph glyph-name="tuikuanshouhou" unicode="&#xe6ea;" horiz-adv-x="1030" 
d="M1021 428q-8 7 -18.5 6t-16.5 -9l-43 -54q-2 32 -8 62q-27 127 -111 221t-203 134t-245 14t-219.5 -111t-133 -205t-13.5 -246.5t110 -220.5t203.5 -134t245.5 -14q135 29 235 129v0v1q1 0 1.5 1.5t1.5 1.5q3 5 3 11q0 8 -6 14t-14 6q-9 0 -16 -7v0q-90 -90 -213 -116
q-114 -24 -222 12.5t-184 121.5t-100 199.5t12 223.5t121 185.5t198.5 100.5t221.5 -12.5t184 -121.5t100 -200q6 -27 8 -53l-52 41q-8 7 -18 6t-16.5 -9t-5.5 -18.5t9 -17.5v0l95 -77v0q8 -6 19 -5q10 1 17 9v0l76 96v0q7 8 6 18.5t-9 16.5v0zM631 311v1q9 0 15.5 6t6.5 15
t-6.5 15.5t-15.5 6.5h-129v39l128 126v1q7 5 7.5 14t-5.5 16t-15 7.5t-16 -5.5l-120 -119l-128 125q-6 5 -15 4.5t-15 -7t-5.5 -15.5t7.5 -15v0l133 -131v-40h-129v0q-9 0 -15.5 -6.5t-6.5 -15.5t6.5 -15.5t15.5 -6.5v0h129v-66h-129v0q-9 0 -15.5 -6.5t-6.5 -15.5
t6.5 -15.5t15.5 -6.5v0h129v-128h1q0 -9 6 -15t15 -6t15.5 6t6.5 15v0v128h129v1q9 0 15.5 6t6.5 15t-6.5 15.5t-15.5 6.5h-129v66h129v0zM631 311z" />
    <glyph glyph-name="favorite" unicode="&#xe626;" horiz-adv-x="1050" 
d="M1030 434q23 24 15 49t-41 32l-248 47q-17 3 -36 17t-28 29l-147 265q-5 10 -16.5 10t-16.5 -10l-148 -265q-8 -15 -27.5 -29t-36.5 -17l-248 -47q-33 -7 -41 -31.5t15 -49.5l173 -183q11 -12 18.5 -34.5t5.5 -39.5l-31 -249q-4 -26 10 -42q22 -25 58 -8l229 107
q15 7 39.5 7t39.5 -7l229 -107q13 -6 26 -6q19 0 31 14q14 16 11 42l-32 249q-2 17 5.5 39.5t19.5 34.5zM830 278q-18 -19 -28 -50t-7 -56l32 -249q1 -9 -2 -12q-2 -3 -12 2l-229 107q-24 11 -56 11t-55 -11l-229 -107q-11 -5 -13 -2q-3 3 -1 12l31 249q3 26 -7 56.5
t-28 49.5l-172 183q-7 7 -6 10.5t11 5.5l248 47q26 5 52 23.5t39 41.5l130 236l131 -236q13 -23 39 -41.5t51 -23.5l248 -47q11 -2 12 -5.5t-7 -10.5z" />
    <glyph glyph-name="3" unicode="&#xe60f;" 
d="M512 468q-70 0 -119 -49t-49 -119t49 -119t119 -49t119 49t49 119t-49 119t-119 49zM512 188q-46 0 -79 33t-33 79t33 79t79 33t79 -33t33 -79t-33 -79t-79 -33zM916 420q-25 5 -53 9q-5 14 -11 28q17 23 30 44q11 17 9 36.5t-16 33.5l-92 92q-16 16 -39 16q-17 0 -31 -9
q-21 -13 -44 -30q-14 6 -28 11q-4 29 -10 53q-4 19 -19 31.5t-35 12.5h-130q-20 0 -35 -12.5t-19 -31.5q-6 -24 -10 -53q-14 -5 -28 -11q-23 17 -44 30q-14 9 -31 9q-23 0 -39 -16l-92 -92q-14 -14 -16 -33.5t9 -36.5q13 -21 30 -44q-6 -14 -11 -28q-29 -4 -53 -10
q-19 -4 -31.5 -19t-12.5 -35v-130q0 -20 12.5 -35t31.5 -19q24 -6 53 -10q5 -14 11 -28q-17 -23 -30 -44q-11 -17 -9 -36.5t16 -33.5l92 -92q16 -16 39 -16q17 0 31 9q21 13 44 30q14 -6 28 -11q4 -29 10 -53q4 -19 19 -31.5t35 -12.5h130q20 0 35 12.5t19 31.5q6 24 10 53
q14 5 28 11q23 -16 44 -30q14 -9 31 -9q23 0 39 16l92 92q14 14 16 34t-9 36q-14 21 -30 44q6 14 11 28q28 4 53 9q19 5 31.5 20t12.5 35v130q0 20 -12.5 35t-31.5 20zM904 235q-38 -8 -84 -14q-11 -44 -34 -83q28 -37 49 -70l-91 -91q-33 21 -70 49q-39 -23 -83 -34
q-6 -47 -14 -84h-130q-8 37 -14 84q-44 11 -83 34q-38 -28 -70 -49l-91 91q21 32 49 70q-23 39 -34 83q-47 6 -84 14v130q37 8 84 14q11 44 34 83q-28 38 -49 70l91 91q32 -21 70 -49q39 23 83 34q6 47 14 84h130q8 -37 14 -84q44 -11 83 -34q38 28 70 49l91 -91
q-21 -32 -49 -70q23 -39 34 -83q46 -6 84 -14v-130z" />
    <glyph glyph-name="bianji1" unicode="&#xe648;" 
d="M784 525l-126 126l63 63q15 15 37.5 15t37.5 -15l51 -51q15 -15 15 -37.5t-15 -37.5zM418 159l-126 126l342 340l126 -126zM191 56l77 205l124 -125zM756 13q14 0 23 -9.5t9 -22.5t-9 -22.5t-23 -9.5h-564q-13 0 -22 9.5t-9 22.5t9 22.5t22 9.5h564z" />
    <glyph glyph-name="jia" unicode="&#xe617;" 
d="M128 352h767v-127h-767v127zM448 672h127v-767h-127v767z" />
    <glyph glyph-name="bianji2" unicode="&#xe62b;" 
d="M803 -212h-659q-46 0 -78 32t-32 78v733q0 46 32 78t78 32h513q22 0 31 -18.5t0 -36.5t-31 -18h-513q-15 0 -26 -11t-11 -26v-733q0 -15 11 -26t26 -11h659q15 0 26 11t11 26v586q0 23 18.5 32t36.5 0t18 -32v-586q0 -46 -32 -78t-78 -32v0zM562 385q-23 26 0 52l364 365
q11 10 26 10t27 -10q19 -21 5 -45l-5 -8l-364 -364q-12 -11 -27 -11t-26 11v0zM437 374h-220q-22 0 -31 18.5t0 37t31 18.5h220v-74v0zM657 155h-440q-22 0 -31 18t0 36.5t31 18.5h440q22 0 31 -18.5t0 -36.5t-31 -18z" />
    <glyph glyph-name="guanbi" unicode="&#xe643;" 
d="M905 -148q-23 0 -39 17l-776 785q-16 16 -16 39t16.5 39t39 16t38.5 -17l776 -785q16 -16 16 -39t-16 -39t-39 -16zM119 -138q-23 0 -39 17q-16 16 -16 39t17 39l785 765q16 16 39 15.5t39 -16.5t15.5 -39t-16.5 -39l-786 -765q-16 -16 -38 -16z" />
    <glyph glyph-name="shanchu" unicode="&#xe614;" 
d="M711 600v99q0 21 -14.5 35.5t-34.5 14.5h-298q-21 0 -35.5 -14.5t-14.5 -35.5v-99h-248v-50h99v-646q0 -20 14.5 -34.5t35.5 -14.5h596q20 0 35 14.5t15 34.5v646h99v50h-249zM662 699v-99h-298v99h298zM811 -96h-596v646h596v-646zM662 451h49v-398h-49v398zM538 53v398
h-25h-25v-398h25h25zM314 451h50v-398h-50v398z" />
    <glyph glyph-name="jinlingyingcaiwangtubiao20" unicode="&#xe79d;" 
d="M506.5 427q-59.5 0 -102 -42t-42.5 -101.5t42.5 -102t102 -42.5t101.5 42.5t42 102t-42 101.5t-101.5 42zM506.5 178q-43.5 0 -74.5 31t-31 74.5t31 74.5t74.5 31t74.5 -31t31 -74.5t-31 -74.5t-74.5 -31zM898 400h-49q-7 22 -17 42q30 30 34 35q22 21 21 47q0 29 -21 49
l-69 69q-21 21 -50 21q-25 0 -46 -20l-35 -35q-20 10 -42 17v50q0 33 -21.5 50.5t-46.5 17.5h-99q-25 0 -46.5 -17.5t-21.5 -50.5v-50q-21 -7 -42 -17l-35 35q-21 21 -46 21q-29 0 -50 -21l-70 -70q-10 -11 -16 -25.5t-3 -34.5t20 -36l35 -35q-10 -20 -18 -42h-49
q-34 0 -51 -21.5t-18 -46.5v-99q1 -24 18 -45.5t51 -21.5h49q8 -22 17 -43l-34 -35q-17 -16 -20 -35.5t3 -34.5t17 -26l69 -69q21 -21 50 -21q26 0 46 21l35 35q20 -10 42 -18v-48q0 -36 22.5 -52.5t46.5 -16.5h98q25 0 46.5 17.5t21.5 51.5v48q22 8 42 18l35 -35
q21 -21 47 -21q28 0 49 21l69 70q11 10 17 25t3 35t-20 36l-34 34q10 21 17 43h49q30 0 49 18q20 21 19 50v98q0 25 -17 46.5t-51 21.5zM928 234q0 -30 -30 -30h-77l-4 -14q-10 -32 -26 -61l-6 -13l54 -54q21 -21 0 -42l-69 -70q-1 0 -3.5 -2t-8 -4.5t-10.5 -2.5
q-10 0 -20 10q-12 11 -44 44l-11 10l-12 -7q-29 -16 -62 -25l-14 -4v-77q0 -30 -29 -30h-99q-29 0 -29 30v77l-14 4q-33 9 -62 25l-12 7l-55 -55q-9 -9 -19 -9q-13 0 -23 9l-69 69q-21 22 0 42l55 55l-7 13q-16 29 -26 61l-4 14h-77q-12 0 -19.5 6.5t-9 12t-1.5 11.5v97
q1 31 30 31h78l4 13q9 33 25 62l7 12l-55 56q-20 20 0 42l68 68q11 10 24 10q10 0 19 -9l55 -55l13 6q29 16 61 26l14 4v78q0 28 30 30h97q30 -1 30 -30v-78l14 -5q33 -9 61 -25l13 -6l55 54q10 10 19 10q13 0 23 -10l69 -69q10 -10 10 -22q0 -10 -10 -20l-45 -45l-10 -10
l7 -12q16 -29 25 -62l5 -13h77q29 0 30 -30v-98v0z" />
    <glyph glyph-name="location" unicode="&#xe620;" 
d="M512 -160q-14 15 -36.5 41.5t-80.5 101t-102 141.5t-80.5 145.5t-36.5 130.5q0 91 45 168.5t122.5 122.5t168.5 45t168.5 -45t122.5 -122.5t45 -168.5q0 -52 -35.5 -129.5t-83 -148t-100 -138.5t-82.5 -103.5t-35 -40.5zM512 527q-53 0 -90 -37.5t-37 -90t37 -89.5
t90 -37t90 37t37 89.5t-37 90t-90 37.5z" />
    <glyph glyph-name="icon052" unicode="&#xe63e;" 
d="M924.5 287q-7.5 0 -13 5.5t-5.5 12.5q0 107 -52.5 198t-143.5 144t-198 53t-198 -53t-143.5 -144t-52.5 -198q0 -7 -5.5 -12.5t-13 -5.5t-13 5.5t-5.5 12.5q0 117 58 216.5t157 157t216 57.5t216 -57.5t157 -157t58 -216.5q0 -7 -5.5 -12.5t-13 -5.5zM212 29h-53
q-32 0 -55 22.5t-23 55.5v187q0 33 23 56t55 23h53q32 0 55 -23t23 -56v-187q0 -33 -23 -55.5t-55 -22.5zM159 336q-17 0 -29 -12t-12 -30v-187q0 -18 12 -30t29 -12h53q17 0 29.5 12t12.5 30v187q0 18 -12.5 30t-29.5 12h-53zM865 29h-53q-32 0 -55 22.5t-23 55.5v187
q0 33 23 56t55 23h53q32 0 55 -23t23 -56v-187q0 -33 -23 -55.5t-55 -22.5zM812 336q-17 0 -29.5 -12t-12.5 -30v-187q0 -18 12.5 -30t29.5 -12h53q17 0 29 12t12 30v187q0 18 -12 30t-29 12h-53zM615 -103q-9 0 -15 8q-4 6 -2.5 13.5t8.5 11.5l201 132q6 4 13.5 2.5
t11.5 -8t2.5 -13.5t-7.5 -11l-202 -133q-4 -2 -10 -2zM570 -160h-90q-26 0 -44.5 18.5t-18.5 44.5v6q0 26 18.5 44.5t44.5 18.5h90q27 0 45.5 -18.5t18.5 -44.5v-6q0 -26 -18.5 -44.5t-45.5 -18.5zM480 -64q-11 0 -18.5 -8t-7.5 -19v-6q0 -11 7.5 -19t18.5 -8h90
q12 0 19.5 8t7.5 19v6q0 11 -7.5 19t-19.5 8h-90z" />
    <glyph glyph-name="iconfonthuafeichongzhi" unicode="&#xe680;" 
d="M761 783h-498q-44 0 -75 -27t-31 -65v-806q0 -38 31 -65t75 -27h498q44 0 75 27t31 65v806q0 38 -31 65t-75 27zM370 737h284v-31h-284v31zM512 -146q-29 0 -50 18.5t-21 44t21 43.5t50 18t50 -18t21 -43.5t-21 -44t-50 -18.5zM796 40h-568v620h568v-620zM667 445l-31 30
l-122 -126l-128 132l-31 -30l106 -109h-90v-32h116v-62h-116v-30h116v-120h49v120h115v30h-115v62h115v32h-83z" />
    <glyph glyph-name="tubiao210" unicode="&#xe61b;" horiz-adv-x="1025" 
d="M939 159q16 -19 19.5 -46t-1 -46t-11.5 -27q-3 -2 -9.5 -10.5t-20.5 -23t-40 -37.5q-21 -19 -51.5 -25.5t-67.5 -1t-59 11t-52 15.5q-45 14 -142 81t-190 156q-63 60 -114.5 136.5t-77 132t-43.5 108.5q-5 16 -8.5 31t-5 25t-1.5 22v18t3 16.5t3.5 13t4.5 12.5t4 11
q9 24 28.5 44.5t60.5 43.5q16 10 29.5 14t24.5 2.5t16.5 -3t14 -7t9.5 -6.5q16 -8 51.5 -45.5t50.5 -72.5q15 -42 12 -66.5t-17 -38.5l-15 -15t-16 -15.5t-13 -10.5q-18 -13 -15 -53q1 -18 46.5 -72t75.5 -85q154 -156 197 -166q44 -10 67 15q1 1 8.5 10t16.5 19t18 18
q17 11 47 10.5t42 -8.5q1 -1 27 -15t52 -32.5t42 -37.5z" />
    <glyph glyph-name="shijian" unicode="&#xe651;" 
d="M512 812q-139 0 -257 -68.5t-186.5 -186.5t-68.5 -257t68.5 -257t186.5 -186.5t257 -68.5t257 68.5t186.5 186.5t68.5 257t-68.5 257t-186.5 186.5t-257 68.5zM512 -131q-117 0 -216.5 57.5t-157 157t-57.5 216.5t57.5 216.5t157 157t216.5 57.5t216.5 -57.5t157 -157
t57.5 -216.5t-57.5 -216.5t-157 -157t-216.5 -57.5zM768 273h-229v256q0 17 -12 29t-28.5 12t-28.5 -12t-12 -29v-296q0 -17 12 -29t29 -12h269q17 0 28.5 12t11.5 28.5t-11.5 28.5t-28.5 12z" />
    <glyph glyph-name="shibai" unicode="&#xe682;" 
d="M512 748q-91 0 -174 -35.5t-143 -95.5t-95.5 -143t-35.5 -174t35.5 -174t95.5 -143t143 -95.5t174 -35.5t174 35.5t143 95.5t95.5 143t35.5 174t-35.5 174t-95.5 143t-143 95.5t-174 35.5v0zM512 -88q-105 0 -194.5 52t-141.5 141.5t-52 194.5t52 194.5t141.5 141.5
t194.5 52t194.5 -52t141.5 -141.5t52 -194.5t-52 -194.5t-141.5 -141.5t-194.5 -52v0zM512 -88zM557 301l138 137q10 9 10 22.5t-9.5 23t-22.5 9.5t-23 -10l-138 -137l-137 137q-9 10 -22.5 10t-22.5 -9.5t-9 -23t9 -22.5l136 -137l-137 -136q-10 -9 -10 -22t9.5 -22.5
t22.5 -9.5t23 9l137 136l139 -139q9 -10 22.5 -10t23 9.5t9.5 23t-10 22.5l-138 139v0z" />
    <glyph glyph-name="dianpu" unicode="&#xe622;" 
d="M847 196q-38 0 -68.5 20.5t-43.5 53.5q-14 -33 -44 -53.5t-67.5 -20.5t-67.5 20.5t-43 53.5q-14 -33 -44.5 -53.5t-68.5 -20.5q-37 0 -67 20.5t-44 53.5q-13 -33 -43.5 -53.5t-68.5 -20.5q-17 0 -34 5v-247q0 -18 15.5 -34.5t32.5 -16.5h642q17 0 32.5 16.5t15.5 34.5
v247q-17 -5 -34 -5zM879 587h-737l-77 -201q0 -45 33 -77t78 -32q47 0 80 32t33 77q0 -45 32.5 -77t78.5 -32t79 32t33 77q0 -45 32.5 -77t78.5 -32t78.5 32t32.5 77q0 -45 33 -77t79 -32t79.5 32t33.5 77l-80 201v0zM844 588v0l2 -1zM193 621h638q16 0 27 11t11 27t-11 27
t-27 11h-638q-16 0 -27 -11t-11 -27t11 -27t27 -11v0zM157 638z" />
    <glyph glyph-name="jiantou" unicode="&#xe6a4;" 
d="M948 319h-826l324 324q5 5 5 13t-5.5 13.5t-13.5 5.5t-13 -6l-353 -353v0q-9 -6 -9 -16q0 -6 5 -12h-1l1 -1v0l357 -357q5 -5 13 -5t13.5 5.5t5.5 13.5t-5 13l-324 324h826q8 0 13.5 6t5.5 13.5t-5.5 13t-13.5 5.5z" />
    <glyph glyph-name="dingdan" unicode="&#xe66f;" 
d="M800 -187h-581q-42 0 -88.5 43t-46.5 92v549q0 46 38.5 90.5t84.5 44.5h73v-130h458v130h65q49 0 90.5 -39.5t41.5 -95.5v-553q0 -57 -42 -94t-93 -37v0v0zM772 354q0 7 -5 11.5t-12 4.5h-491q-7 0 -11.5 -4.5t-4.5 -11.5v-33q0 -7 4.5 -11.5t11.5 -4.5h491q7 0 12 4.5
t5 11.5v33v0zM772 190q0 7 -5 11.5t-12 4.5h-491q-7 0 -11.5 -4.5t-4.5 -11.5v-33q0 -6 4.5 -11t11.5 -5h491q7 0 12 5t5 11v33v0zM772 26q0 7 -5 12t-12 5h-491q-7 0 -11.5 -5t-4.5 -12v-32q0 -7 4.5 -12t11.5 -5h491q7 0 12 5t5 12v32v0zM476 567h-130v131h65q0 27 19 46
t46 19h66q27 0 46 -19t19 -46h66v-131h-197v0zM509 708q-17 0 -29 -12t-12 -29t12 -29t29 -12t29 12t12 29t-12 29t-29 12v0v0z" />
    <glyph glyph-name="dingdan1" unicode="&#xe623;" 
d="M788 -26h-531q-10 0 -17 7t-7 17v600q0 10 7 16.5t17 6.5h531q10 0 16.5 -6.5t6.5 -16.5v-600q0 -10 -6.5 -17t-16.5 -7zM372 477q0 6 -6 6h-34q-6 0 -6 -6v-35q0 -5 6 -5h34q6 0 6 5v35zM372 315q0 6 -6 6h-34q-6 0 -6 -6v-34q0 -6 6 -6h34q6 0 6 6v34zM372 154
q0 5 -6 5h-34q-6 0 -6 -5v-35q0 -6 6 -6h34q6 0 6 6v35zM719 477q0 6 -6 6h-289q-6 0 -6 -6v-35q0 -5 6 -5h289q6 0 6 5v35zM719 315q0 6 -6 6h-289q-6 0 -6 -6v-34q0 -6 6 -6h289q6 0 6 6v34zM719 154q0 5 -6 5h-289q-6 0 -6 -5v-35q0 -6 6 -6h289q6 0 6 6v35z" />
    <glyph glyph-name="weizhi" unicode="&#xe610;" 
d="M519 526q-44 0 -75 -32.5t-31 -77.5t31 -77.5t75 -32.5t75 32.5t31 77.5t-31 77.5t-75 32.5zM518.5 745q-86.5 0 -160 -44t-116 -120t-42.5 -165q0 -51 33 -126t79.5 -146t93.5 -134t80 -103t33 -39q13 15 34.5 41t76.5 99t97 138t76.5 142t34.5 128q0 89 -43 165
t-116.5 120t-160 44zM519 197q-88 0 -150.5 64t-62.5 155t62.5 155t150.5 64t150 -64t62 -155t-62 -155t-150 -64z" />
    <glyph glyph-name="gengduo" unicode="&#xe86a;" 
d="M512 748q-91 0 -174 -35.5t-143 -95.5t-95.5 -143t-35.5 -174t35.5 -174t95.5 -143t143 -95.5t174 -35.5t174 35.5t143 95.5t95.5 143t35.5 174t-35.5 174t-95.5 143t-143 95.5t-174 35.5zM512 -101q-109 0 -201.5 53.5t-146 146t-53.5 201.5t53.5 201.5t146 146
t201.5 53.5t201.5 -53.5t146 -146t53.5 -201.5t-53.5 -201.5t-146 -146t-201.5 -53.5zM323 300zM268 300q0 23 16 39t39 16t39 -16t16 -39t-16 -39t-39 -16t-39 16t-16 39zM512 300zM457 300q0 23 16 39t39 16t39 -16t16 -39t-16 -39t-39 -16t-39 16t-16 39zM701 300z
M646 300q0 23 16 39t39 16t39 -16t16 -39t-16 -39t-39 -16t-39 16t-16 39z" />
    <glyph glyph-name="maimai" unicode="&#xe73b;" 
d="M309 0.5q0 -25.5 18 -43.5t44 -18t44 18t18 43.5t-18 43.5t-44 18t-44 -18t-18 -43.5zM766 3.5q0 -25.5 18 -43.5t43.5 -18t44 18t18.5 43.5t-18.5 43.5t-44 18t-43.5 -18t-18 -43.5zM906 341l51 278q7 34 -15.5 61t-57.5 26l-644 -4q-11 61 -16 77q-7 23 -27 35.5
t-46 13.5t-40 0t-25 -4q-11 -2 -16.5 -10.5t-3.5 -19t11 -16t19 -3.5q22 5 49.5 2.5t30.5 -12.5q14 -47 98 -581q6 -37 34.5 -61t65.5 -24l518 -2h1q10 0 17.5 7t7.5 17.5t-7.5 18t-17.5 7.5l-519 2q-18 0 -32.5 12t-17.5 31q0 3 -2 14.5t-3 17.5l501 40q32 3 56 24.5
t30 52.5z" />
    <glyph glyph-name="quan" unicode="&#xe748;" 
d="M512 -93q-97 0 -185 38t-152 102t-102 152t-38 185t38 185.5t102 152t152 101.5t185 38t185 -38t152 -101.5t102 -152t38 -185.5t-38 -185t-102 -152t-152 -102t-185 -38zM512 815q-117 0 -216 -58t-157 -157t-58 -216t58 -216t157 -157t216 -58t216 58t157 157t58 216
t-58 216t-157 157t-216 58z" />
    <glyph glyph-name="morentouxiang" unicode="&#xe647;" 
d="M643 103q-3 26 -3 106q20 11 52 50t35 73q14 1 26.5 17.5t17.5 54.5q2 19 -4.5 33t-15.5 19q8 23 11.5 57.5t-0.5 77t-17 79t-44.5 64.5t-77.5 34q-25 44 -114 44q-64 -1 -113 -20.5t-79 -52.5t-45 -78t-14.5 -97t15.5 -109q-9 -5 -15.5 -18.5t-4.5 -34.5
q5 -37 17.5 -53.5t26.5 -17.5q3 -35 35.5 -74.5t51.5 -48.5q0 -79 -3 -106q-8 -24 -31.5 -41t-53 -28.5t-64 -22.5t-67 -28t-60 -40t-46 -62.5t-21.5 -91.5h948q-2 53 -19.5 93t-45 63t-60.5 39.5t-67.5 28t-65 22.5t-54 28t-31.5 41z" />
    <glyph glyph-name="bianji" unicode="&#xe679;" 
d="M880 40h-743q-8 0 -14 -6t-6 -14t6 -14t14 -6h743q8 0 14 6t6 14t-6 14t-14 6zM167 98q2 0 5 1l123 35q5 1 9 5l387 387q5 6 5 14t-5.5 14t-14 6t-14.5 -6l-334 -335l-65 65q-3 4 -8 5l327 328q6 5 6 13.5t-6 14.5t-14 6t-14 -6l-384 -384q-5 -5 -6 -12l-17 -128
q-2 -11 6 -18q6 -5 14 -5zM203 237l27 27q1 -5 4 -8l65 -65l-20 -20l-88 -26zM701 567q6 -6 13 -6q9 0 15 7l71 76q5 6 5 14.5t-6 13.5l-97 90q-7 6 -15 5.5t-14 -6.5l-70 -77q-6 -6 -5.5 -14t6.5 -14zM689 719l68 -62l-44 -47l-67 62z" />
    <glyph glyph-name="gouwuche" unicode="&#xe608;" 
d="M799.5 -58q-36.5 0 -62.5 26.5t-26 63t26 62.5t62.5 26t62.5 -26t26 -62.5t-26 -63t-62.5 -26.5zM799 78q-19 0 -32.5 -13.5t-13.5 -33t13.5 -33.5t32.5 -14t33 14t14 33.5t-14 33t-33 13.5zM444.5 -58q-36.5 0 -62.5 26.5t-26 63t26 62.5t62.5 26t62.5 -26t26 -62.5
t-26 -63t-62.5 -26.5zM444.5 78q-19.5 0 -33 -13.5t-13.5 -33t13.5 -33.5t33 -14t33 14t13.5 33.5t-13.5 33t-33 13.5zM443 154q-31 0 -61 31q-32 31 -38 67l-111 440q-1 2 -1 4q0 6 -4 24l-3 1t-4 1h-132q-9 0 -15 7t-6 17t6 16.5t15 6.5h135h3q5 -1 11 -3t16.5 -11.5
t13.5 -21.5q4 -15 5 -30l92 -360h472l74 268q0 2 1 3q0 10 -2 13q-2 4 -12 3h-535q-9 0 -15 7t-6 17t6 16.5t15 6.5h533q36 3 51 -27q12 -26 4 -53l-76 -274q-1 -2 -1 -4q-10 -23 -34 -23l-463 -1l8 -32v-3q5 -21 24 -40q18 -17 34 -19h369q9 0 15 -6.5t6 -16.5t-6 -17
t-15 -7h-366h-3z" />
    <glyph glyph-name="x-mpg" unicode="&#xe68c;" 
d="M850 -66h-676q-49 0 -80.5 31.5t-31.5 80.5v676q0 49 31.5 80.5t80.5 31.5h676q49 0 80.5 -31.5t31.5 -80.5v-676q0 -49 -31.5 -80.5t-80.5 -31.5zM100 684v-75h150l-73 182q-36 -10 -56.5 -38.5t-20.5 -68.5zM250 796l75 -187h112l-75 187h-112zM437 796l75 -187h112
l-74 187h-113zM624 796l76 -187h112l-75 187h-113zM924 684q0 50 -31 81t-81 31l75 -187h37v75zM924 572h-824v-488q0 -50 31 -81t81 -31h600q50 0 81.5 31t31.5 81zM362 459l338 -187l-338 -188v375z" />
    <glyph glyph-name="wuliu" unicode="&#xe71b;" horiz-adv-x="1280" 
d="M327 199q-68 0 -115.5 -48t-47.5 -115.5t47.5 -115.5t115.5 -48t116 48t48 115.5t-48 115.5t-116 48zM327 -85q-50 0 -85.5 35t-35.5 85.5t35.5 85.5t85.5 35t85.5 -35t35.5 -85.5t-35.5 -85.5t-85.5 -35zM981.5 199q-67.5 0 -115.5 -48t-48 -115.5t48 -115.5t115.5 -48
t115.5 48t48 115.5t-48 115.5t-115.5 48zM981 -85q-50 0 -85.5 35t-35.5 85.5t35.5 85.5t85.5 35t85.5 -35t35.5 -85.5t-35.5 -85.5t-85.5 -35zM434 555q-9 0 -15.5 -6.5t-6.5 -15.5v-177q0 -10 6.5 -16t15.5 -6t15 6t6 16v177q0 9 -6 15.5t-15 6.5zM412 377h-177
q-9 0 -15.5 -6t-6.5 -15.5t6.5 -15.5t15.5 -6h177q10 0 16 6t6 15.5t-6 15.5t-16 6zM1259 277q-9 0 -15.5 -6t-6.5 -15v-178q0 -9 6.5 -15t15.5 -6t15 6t6 15v178q0 9 -6 15t-15 6zM21 242q-9 0 -15 -6t-6 -16v-177q0 -9 6 -15.5t15 -6.5t15.5 6.5t6.5 15.5v177
q0 10 -6.5 16t-15.5 6zM818 57h-320q-9 0 -15.5 -6t-6.5 -15.5t6.5 -15.5t15.5 -6h320q9 0 15 6t6 15.5t-6 15.5t-15 6zM284 697q-9 -12 -16 -19.5t-10 -8.5l-2 -1l-213 -135q-5 -2 -12 -5t-19 -14.5t-12 -22.5v-420h43v384q-2 22 14 29l227 142q18 10 36 28q13 13 3 39
q-9 26 -28 14q-5 -3 -11 -10zM1237 747v-598h43v605q0 58 -42 100t-100 42h-711q-59 0 -101 -42t-42 -100v-93h43v86q0 44 31.5 75t75.5 31h697q44 0 75 -31t31 -75z" />
    <glyph glyph-name="dingwei" unicode="&#xe63d;" 
d="M115 473q-2 136 74 246t199 152q139 46 268 6.5t215 -156.5q78 -106 78 -244.5t-79 -244.5q-88 -116 -245 -305q-47 -56 -96.5 -54.5t-95.5 59.5q-184 228 -227 285q-94 123 -91 256zM168 473q-10 -99 66 -201q57 -79 250 -317q26 -30 51 -27.5t49 32.5q16 20 75 91.5
t96 119t71 94.5q74 107 71 223.5t-79 214.5q-71 91 -182.5 124.5t-220.5 -4.5q-112 -38 -179.5 -133t-67.5 -217zM352 479q0 76 49 127.5t123 51.5q81 1 135.5 -50t54.5 -127q1 -77 -53.5 -131.5t-131.5 -53.5q-76 1 -126.5 53t-50.5 130zM532 605q-53 1 -89 -34t-38 -89
q-1 -55 35.5 -93t91.5 -39q52 0 89 36.5t38 88.5q1 56 -35 93t-92 37z" />
    <glyph glyph-name="geren" unicode="&#xe621;" 
d="M960 22q0 -27 -15.5 -48.5t-40.5 -30.5v-5h-785v5q-25 9 -40.5 30.5t-15.5 48.5q0 13 5 26.5t12 24t16 20.5t18 17.5t16.5 12.5l12 8l4.5 3l252 140v58q-51 30 -81.5 81.5t-30.5 112.5v84q0 93 66 158.5t158.5 65.5t158.5 -65.5t66 -158.5v-84q0 -61 -30.5 -112.5
t-81.5 -81.5v-58l252 -140l4.5 -3t12 -8.5t16.5 -13t17.5 -17.5t16 -20.5t12.5 -23.5t5 -26v0zM960 22z" />
    <glyph glyph-name="101" unicode="&#xe601;" horiz-adv-x="1065" 
d="M988 867q-5 2 -11 2q-16 0 -26 -11q-851 -477 -884 -496q-27 -16 -25 -44q2 -22 23 -30q279 -98 281 -98l5 -2l16 54l-247 86l757 438q-296 -374 -423 -533q-28 -35 -28 -76v-165v0v-58v-2v0q1 -11 8.5 -19t17.5 -8t17.5 8t8.5 19v0v221q-1 21 10 35q99 125 451 569
q-109 -604 -124 -687q-1 -4 -3 -4h-2q-31 11 -271 92l-5 1l-17 -54l5 -2l41 -13.5t89 -30t93 -31.5t53 -18q8 -2 15 -2q20 0 34.5 14t18.5 36q1 5 54 300q82 452 84 461v3q6 33 -16 45v0v0zM988 867z" />
    <glyph glyph-name="shouji" unicode="&#xe698;" horiz-adv-x="1054" 
d="M771 896h-485q-3 0 -7.5 -0.5t-16.5 -4t-21 -10.5t-16.5 -22t-7.5 -36l-1 -879q1 0 0 -7t2.5 -18t9 -21.5t20 -18t35.5 -7.5h491q3 0 7.5 0.5t16.5 4t20.5 10t16 21t7.5 34.5v881l-0.5 7.5t-4 18.5t-10 21.5t-21 18t-35.5 7.5v0v0zM459 861h139v-36h-139v36v0zM407 861
q7 0 12 -5.5t5 -12.5t-5 -12.5t-12.5 -5.5t-12.5 5.5t-5 12.5t5 12.5t13 5.5v0v0zM529 -57q-15 0 -25 10t-10 25t10 25t24.5 10t24.5 -10t10 -25t-10 -25t-24 -10v0v0zM774 84h-491v706h491v-706v0zM774 84z" />
    <glyph glyph-name="7tian" unicode="&#xe67e;" 
d="M511.5 806q21.5 0 61.5 -23l254 -146q39 -23 49.5 -41.5t10.5 -64.5v-293q0 -45 -10.5 -63.5t-49.5 -41.5l-254 -147q-39 -22 -61 -22t-61 23l-254 146q-39 23 -49.5 41.5t-10.5 63.5v293q0 46 10.5 64.5t49.5 41.5l254 146q39 23 60.5 23zM512 837q-30 0 -76 -27
l-254 -146q-46 -27 -61 -53t-15 -80v-293q0 -53 15 -79t61 -53l254 -146q46 -27 76 -27t76 27l254 146q46 27 61 53t15 79v293q0 54 -15 80t-61 53l-254 146q-46 27 -76 27v0zM346 618h354v-47q-26 -27 -62 -73t-70.5 -110t-60 -145t-29.5 -179h-54q5 72 19 135
q15 63 42 123.5t67.5 121.5t98.5 127h-305v47v0zM346 618z" />
    <glyph glyph-name="4" unicode="&#xe60c;" 
d="M995 398q-6 -24 -6 -25q-24 -61 -88 -69q-41 -5 -74 20.5t-40 66.5q-7 43 17.5 77.5t66.5 42.5q44 9 80.5 -17t42.5 -71l1 -4v-21zM965 408q0 31 -22 53t-52.5 22t-52.5 -21.5t-22.5 -52.5t22 -53.5t53 -22.5t52.5 22t22 53zM21 418q6 25 6 26q24 61 88 69
q41 4 74.5 -21.5t39.5 -66.5q7 -42 -17.5 -77t-66.5 -43q-44 -8 -80 18t-43 70q0 1 -1 5v20zM51 408q0 -31 22 -53t53 -22t53 22t22 53t-22 53t-53 22t-53 -22t-22 -53zM613 408.5q0 -43.5 -31 -74.5t-74.5 -30.5t-74 31t-30.5 74t31 74t74.5 30.5t74 -30.5t30.5 -74z
M508 333q31 0 53 22t22 53t-22 53t-52.5 22.5t-53 -22t-22.5 -53.5t22 -53t53 -22z" />
    <glyph glyph-name="24tongzhi" unicode="&#xe640;" 
d="M620 -65q-7 0 -12 4l-280 210l-44 32h-208q-8 0 -14 6t-6 15v369q0 9 6 15t14 6h223l309 237q10 8 21.5 2.5t11.5 -18.5v-857q0 -13 -12 -19q-4 -2 -9 -2zM97 222h194q7 0 13 -4l48 -37l248 -184v774l-282 -216q-5 -4 -12 -4h-209v-329zM461 66zM963 358v0h-166
q-8 0 -14 6t-6 14.5t6 14.5t14 6v0h166q9 0 15 -6t6 -14.5t-6 -14.5t-15 -6zM946 19q-8 0 -14 6l-147 144q-6 6 -6 14.5t5.5 14.5t14 6.5t14.5 -5.5l148 -145q6 -6 6 -14t-6 -14.5t-15 -6.5zM799 552q-8 0 -14 6.5t-6 14.5t6 14l147 145q6 6 14.5 5.5t14.5 -6.5t6 -14.5
t-6 -14.5l-148 -144q-5 -6 -14 -6z" />
    <glyph glyph-name="xuanzedui" unicode="&#xe628;" 
d="M511.5 856q-95.5 0 -183 -37.5t-150.5 -100.5t-100.5 -150.5t-37.5 -183t37.5 -183t100.5 -150.5t150.5 -100.5t183 -37.5t183 37.5t150.5 100.5t100.5 150.5t37.5 183t-37.5 183t-100.5 150.5t-150.5 100.5t-183 37.5zM772 515l-312 -316h-1v0q-2 -2 -8 -6q-1 0 -2.5 -1
t-2.5 -2q-6 -2 -14 -2t-15 3q-1 0 -2.5 1l-1.5 1l-9 6v0v1l-154 157q-11 12 -11 28t12 27.5t28 11t27 -11.5l126 -130l285 288q11 12 27 12t27.5 -11.5t12 -27.5t-11.5 -28z" />
    <glyph glyph-name="jiantou-copy" unicode="&#xe627;" 
d="M321 830l-64 -63l381 -384l-384 -380l63 -64l449 444z" />
    <glyph glyph-name="daifukuan" unicode="&#xe68f;" horiz-adv-x="1166" 
d="M1128 32v0q0 -48 -38 -82t-92 -34v0h-831v0q-54 0 -92 34t-38 82v693q0 38 30.5 65.5t73.5 27.5v0h420l92 40q29 10 45 -2l25 -38h197q43 0 73.5 -27.5t30.5 -65.5v-69v0q43 0 73.5 -27t30.5 -66v-531v0v0zM141 771v0q-20 0 -36 -24t-16 -45q0 -19 15 -32.5t37 -13.5h37
h-26h5h1v0l312 115h-329v0v0zM688 767l-27 45v0l-93 -41v0l-287 -115h470l-63 111v0v0zM972 725q0 19 -15 32.5t-37 13.5h-179l64 -115h167v0v69v0v0zM1024 609h-883v1q-27 0 -52 12v-590q0 -29 23 -49.5t55 -20.5h831q32 0 55 20.5t23 49.5v161h-104q-43 0 -73.5 27.5
t-30.5 65.5t30.5 65t73.5 27h104v185q0 19 -15 32.5t-37 13.5v0v0zM1076 240v92h-104q-21 0 -36.5 -13.5t-15.5 -32.5t15.5 -32.5t36.5 -13.5h104v0v0v0zM972 309h52v-46h-52v46v0v0z" />
    <glyph glyph-name="jia1" unicode="&#xe711;" 
d="M512 886q-102 0 -195.5 -39.5t-161 -107t-107.5 -161t-40 -196t40 -195.5t107.5 -160.5t161 -107.5t195.5 -40t195.5 40t161 107.5t107.5 160.5t40 195.5t-40 196t-107.5 161t-161 107t-195.5 39.5zM837 57.5q-64 -63.5 -146 -98.5q-85 -36 -179 -36t-179 36
q-82 35 -146 98.5t-99 146.5q-36 85 -36 178.5t36 179.5q35 82 99 145.5t146 98.5q85 36 179 36t179 -36q82 -35 146 -98.5t99 -145.5q36 -86 36 -179.5t-36 -178.5q-35 -83 -99 -146.5zM747 405h-213v214q0 9 -6.5 15.5t-15.5 6.5t-15.5 -6.5t-6.5 -15.5v-214h-213
q-9 0 -15.5 -6.5t-6.5 -16t6.5 -15.5t15.5 -6h213v-212q0 -9 6.5 -15.5t15.5 -6.5t15.5 6.5t6.5 15.5v212h213q9 0 15.5 6.5t6.5 15.5t-6.5 15.5t-15.5 6.5z" />
    <glyph glyph-name="weibo" unicode="&#xe629;" horiz-adv-x="1026" 
d="M760 402q-18 3 -23 10.5t-2 13.5l4 5q2 3 4 7.5t6.5 18t5 26.5t-5 29.5t-18.5 29.5q-16 16 -42.5 21.5t-52.5 1.5t-50 -10.5t-39 -13.5l-14 -6q-12 -4 -19.5 -5t-12 0.5t-6.5 3.5t-2 8.5t1 10.5t3.5 14.5t3.5 16.5q0 17 -3 32t-12.5 31.5t-26 25t-47 8t-71.5 -14.5
q-40 -13 -82.5 -41t-74 -57.5t-57 -58t-39 -46l-13.5 -17.5q-75 -99 -75 -202q7 -57 34.5 -101t65.5 -71.5t89.5 -47t99 -28.5t100.5 -13q87 -7 180 13.5t173.5 71t113.5 120.5q20 42 20.5 78t-12.5 59t-33.5 40.5t-38.5 25.5t-32 11zM402 38q-126 -6 -215 49t-89 139
t88.5 144t215.5 66q128 6 216 -42.5t88 -130.5q0 -85 -89.5 -152.5t-214.5 -72.5zM368 362q-34 -4 -61 -16t-42.5 -28t-26 -34.5t-14 -35.5t-5 -31.5t-1 -23t0.5 -9.5v-5.5t2.5 -13.5t6.5 -19t13.5 -19.5t22.5 -17.5q48 -26 97.5 -27t89 18.5t65.5 53.5q16 20 21.5 49
t-2.5 58.5t-26.5 54.5t-55 38.5t-85.5 7.5zM325.5 140q-23.5 -3 -40 9t-16.5 32t15.5 37.5t38.5 19.5q27 3 43.5 -10t16.5 -34q0 -19 -17 -35t-40.5 -19zM425 225q-8 -6 -16.5 -5t-12.5 8q-5 7 -3 16.5t10 15.5q10 7 18.5 5.5t12.5 -8.5t1.5 -16.5t-10.5 -15.5zM842 470
q10 0 18 7t9 17v3q5 37 -1.5 66t-19.5 45t-30 26.5t-34.5 13.5t-32.5 4t-24 -1l-10 -1q-11 0 -19 -8t-8 -19.5t8 -19.5t19 -8q37 7 58 0t30 -23t11 -32.5t0 -28.5l-2 -13q0 -11 8 -19.5t20 -8.5zM822 794q-59 14 -138 -1q-1 0 -2.5 -1l-1.5 -1l-1 -1q-13 -3 -21.5 -14
t-8.5 -25q0 -16 12 -28t29 -12q21 3 36 9q6 0 20.5 1.5t38.5 -4.5t48 -15t49.5 -30.5t43.5 -50.5q31 -69 12 -134q-8 -19 -8 -38q0 -17 11.5 -27t28.5 -10t26.5 6.5t12.5 27.5v0q21 65 16 118t-22.5 92.5t-49.5 68t-64.5 45t-66.5 24.5z" />
    <glyph glyph-name="qq1" unicode="&#xe612;" 
d="M867 188q-25 -69 -72 -132q3 -1 9 -3.5t19.5 -11t24 -19.5t18 -29t5.5 -39q0 -3 -0.5 -8.5t-10 -19.5t-26 -24.5t-53.5 -18t-87 -6.5q-6 1 -14.5 2t-32.5 5.5t-44 11t-42 18.5t-32 27h-34q-10 -15 -31.5 -27t-42 -18.5t-44.5 -11t-33 -5.5t-14 -2v0q-50 -1 -87 6.5
t-53.5 18t-26 24.5t-10 19t-0.5 9q-2 15 1.5 29t10 24t15 18.5t17 14t16 9.5t12 5.5l4.5 1.5q-21 28 -39 61.5t-25.5 51.5t-7.5 19q-79 -128 -97 -41q-6 29 -4 67q18 109 100 195q9 9 10 9q-4 34 -2 57t8 38t12 23t11 11l4 3q2 71 20.5 128t44.5 92t61 60t64 36.5t60.5 17.5
t43.5 6.5t19 0.5t19 -0.5t43.5 -6.5t60.5 -17.5t64 -36.5t61 -60t44.5 -92t20.5 -128q2 -1 4.5 -3t10.5 -11t12 -23t8 -38t-1 -57l9 -9t22.5 -27t30.5 -43t27.5 -56.5t19.5 -68.5q1 0 1 -11t-1 -26t-4 -31t-10 -24.5t-17.5 -8.5t-28.5 19t-41 56v0v0z" />
    <glyph glyph-name="dianhua" unicode="&#xe62d;" 
d="M198 878q-30 0 -76 -28.5t-83.5 -76t-37.5 -90.5q0 -67 39 -153.5t103.5 -173.5t151 -171.5t176.5 -149.5t184 -105t171 -40q43 0 89 26.5t77 72.5t31 96q0 18 -58.5 65.5t-127 89t-93.5 41.5q-27 0 -72 -23t-67 -23t-85 52t-117 114.5t-54 85.5q0 25 23.5 63t23.5 64
q0 19 -37 83t-85.5 122.5t-75.5 58.5z" />
    <glyph glyph-name="shanchu1" unicode="&#xe615;" 
d="M574 163v351q0 20 16 28t32 0t16 -28v-351q0 -19 -16 -27t-32 0t-16 27v0v0v0zM383 163v351q0 20 16 28t32 0t16 -28v-351q0 -19 -16 -27t-32 0t-16 27v0v0v0zM926 674h-160v64q0 39 -28 67.5t-67 28.5h-320q-40 0 -68 -28.5t-28 -67.5v-64h-160q-19 0 -27 -16t0 -32
t27 -16h831q19 0 27 16t0 32t-27 16v0v0v0zM319 738q0 13 9.5 22.5t22.5 9.5h320q13 0 22 -9t9 -23v-64h-383v64v0v0zM734 -60h-447q-40 0 -68 28t-28 68v478q0 14 9.5 23t22.5 9t22.5 -9t9.5 -23v-478q0 -13 9.5 -22.5t22.5 -9.5h447q13 0 22.5 9.5t9.5 22.5v477
q0 20 16 28.5t32 0t16 -28.5v-477q0 -40 -28 -68t-68 -28v0v0zM734 -60z" />
    <glyph glyph-name="gouwuchedown" unicode="&#xe62c;" 
d="M188 -71q0 -24 -16.5 -40.5t-40.5 -16.5h-74q-23 0 -40 16.5t-17 40.5v75q0 24 17 40.5t40 16.5h74q24 0 40.5 -16.5t16.5 -40.5v-75v0zM944 -71q0 -24 -16.5 -40.5t-40.5 -16.5h-74q-23 0 -40 16.5t-17 40.5v75q0 24 17 40.5t40 16.5h74q24 0 40.5 -16.5t16.5 -40.5v-75
zM833 769q-7 -15 -42 -15l-540 -1q-5 1 -14 0t-35 -5.5t-50 -13t-53 -27.5t-49.5 -44.5t-35 -67.5t-14.5 -93v-189q0 -6 0.5 -15t5.5 -35t13.5 -50t27.5 -53t44.5 -50t67.5 -35t93 -14h378q5 0 14 0.5t35.5 5.5t50 13.5t52.5 27.5t50 44.5t35.5 67t14.5 93.5v378
q0 35 13 60.5t31.5 37.5t37 19t31.5 8l13 1v63q-58 0 -110 -33q-46 -28 -65 -78zM692 307q0 -23 -16.5 -39.5t-39.5 -16.5h-392q-23 0 -39.5 16.5t-16.5 39.5v13q0 23 16.5 39.5t39.5 16.5h392q23 0 39.5 -16.5t16.5 -39.5v-13zM692 495q0 -23 -16.5 -39.5t-39.5 -16.5h-392
q-23 0 -39.5 16.5t-16.5 39.5v14q0 23 16.5 39.5t39.5 16.5h392q23 0 39.5 -16.5t16.5 -39.5v-14z" />
    <glyph glyph-name="faxian" unicode="&#xe642;" 
d="M512 896q-138 0 -256 -69t-187 -187t-69 -256t69 -256t187 -187t256 -69t256 69t187 187t69 256t-69 256t-187 187t-256 69v0v0zM512 -77q-93 0 -178.5 36.5t-147.5 98.5t-98.5 147.5t-36.5 178.5t36.5 178.5t98.5 147.5t147.5 98.5t178.5 36.5t178.5 -36.5t147.5 -98.5
t98.5 -147.5t36.5 -178.5t-36.5 -178.5t-98.5 -147.5t-147.5 -98.5t-178.5 -36.5v0v0zM563 384q0 21 -15 36t-36 15t-36 -15t-15 -36t15 -36t36 -15t36 15t15 36v0v0zM236 637q0 -7 2 -10l131 -330q16 -40 56 -56l330 -131q13 -6 24.5 1.5t11.5 21.5q0 8 -3 10l-130 331
q-16 40 -56 56l-331 130q-13 6 -24 -1.5t-11 -21.5v0v0zM581 479q20 -8 28 -28l110 -274l-274 110q-20 8 -28 28l-110 274l274 -110v0v0z" />
    <glyph glyph-name="gou" unicode="&#xe6aa;" 
d="M73 386q-12 11 -12 27.5t11.5 28t28 12t28.5 -11.5l264 -257l500 492q11 12 27.5 11.5t28 -12t11.5 -28t-12 -27.5l-527 -520q-11 -11 -27.5 -11t-27.5 11z" />
    <glyph glyph-name="rectangle1" unicode="&#xe639;" 
d="M512 876q-100 0 -191 -39t-157 -105t-105 -157t-39 -191t39 -191t105 -157t157 -105t191 -39t191 39t157 105t105 157t39 191t-39 191t-105 157t-157 105t-191 39v0v0v0zM512 -87q-96 0 -183.5 37t-150.5 100t-100 150.5t-37 183.5t37 183.5t100 150.5t150.5 100
t183.5 37t183.5 -37t150.5 -100t100 -150.5t37 -183.5t-37 -183.5t-100 -150.5t-150.5 -100t-183.5 -37v0v0v0zM737 388v-2q-1 -6 -6 -9l-343 -217h-1v0q-1 0 -2.5 -0.5t-2.5 -0.5h-0.5h-0.5h-0.5h-0.5q-2 0 -3 0.5l-2 1t-2 1.5l-2 2l-0.5 0.5l-0.5 0.5v0.5v0.5l-1 2v3v0
v426v0v3l1 2v0.5v0.5l0.5 0.5l0.5 0.5l2 2t2 1.5l2 1t3 0.5h0.5h0.5h0.5h0.5q1 0 2.5 -0.5t2.5 -0.5v0h1l343 -208q5 -3 6 -10v-2v0z" />
    <glyph glyph-name="didian" unicode="&#xe72f;" 
d="M591 -7q87 87 146 161q53 65 97 161q1 3 3 7q29 69 29 146q0 98 -47.5 182t-129 132.5t-177.5 48.5t-177.5 -48.5t-129 -132.5t-47.5 -182q0 -77 29 -146q2 -4 3 -7q42 -93 97 -161q75 -95 190 -203q16 -14 37 -14q7 0 15 4t15 9t15.5 12.5t13.5 12t11.5 11t6.5 7.5z
M318 176q-23 29 -47 68.5t-36 63.5t-12 25v1q-29 64 -29 135q0 87 42.5 161.5t116 117.5t159.5 43t159.5 -43t116 -117.5t42.5 -161.5q0 -71 -29 -135v-1q-42 -91 -95 -157q-37 -45 -85.5 -96.5t-78.5 -80.5l-30 -29q-111 104 -194 206zM512 615q-60 0 -102 -43t-42 -103.5
t42 -103.5t102 -43t102.5 43t42.5 103.5t-42.5 103.5t-102.5 43zM404 469q0 44 31 76t75.5 32t75.5 -32t31 -76.5t-31 -76t-75.5 -31.5t-75.5 31.5t-31 76.5v0z" />
    <glyph glyph-name="ai-moments" unicode="&#xe660;" 
d="M645 703v0v0v0zM512 896q-40 0 -56 -4q-67 -6 -133 -32q346 -341 354 -354v362q-24 8 -32 8q-67 20 -133 20v0v0zM645 703v0v0v0v0zM830 519v0v0v0zM875 747q-28 29 -45 41q-57 44 -116 68q4 -486 0 -502l258 257q-2 4 -8.5 14t-8.5 14q-28 56 -80 108v0v0zM830 519v0v0
v0v0zM835 249v0v0v0zM988 571q-343 -346 -355 -354h367q8 24 8 32q16 59 16 133q0 40 -4 56q-7 82 -32 133v0v0zM835 249v0v0v0v0zM645 61v0v0v0zM480 177l258 -257q24 12 28 16q54 30 105 81q28 28 40 44q45 57 69 116v0h-500v0v0zM645 61v0v0v0v0zM379 61v0v0v0zM347 262
v-366q24 -8 32 -8q59 -16 133 -16q40 0 56 4q67 6 133 32q0 -2 -86.5 83t-175.5 174t-92 97v0v0zM379 61v0v0v0v0zM194 249v0v0v0zM310 410l-258 -257q2 -4 8.5 -14t8.5 -14q30 -54 80 -104q28 -29 45 -41q57 -44 116 -68q0 -2 0 25.5t-0.5 70t-0.5 95v105.5v97.5t0.5 73.5
t0.5 31v0zM194 249v0v0v0v0zM194 515v0v0v0zM16 515q-16 -59 -16 -133q0 -40 4 -56q6 -66 32 -133q343 346 355 354h-367q-2 -6 -4 -16t-4 -16v0v0zM194 515v0v0v0v0zM379 699v0v0v0zM254 824q-54 -30 -105 -81q-16 -12 -40 -44q-45 -57 -69 -116q488 4 504 0l-258 257
q-24 -8 -32 -16v0v0zM379 699v0v0v0z" />
    <glyph glyph-name="ai-video" unicode="&#xe66c;" 
d="M648 55q4 0 10 0.5t22 5.5t28.5 14t22.5 28t10 45v466q0 26 -9.5 45t-23.5 28t-27.5 14t-23.5 5l-9 1h-555q-4 0 -10 -0.5t-22 -5.5t-28.5 -14t-22.5 -28t-10 -45v-466q0 -19 5 -34.5t13.5 -24.5t18.5 -16t19.5 -10.5t18 -5t13.5 -2.5h5h555zM795 525v-290l229 -180v652z
" />
    <glyph glyph-name="shijian1" unicode="&#xe60e;" 
d="M512.5 765q-103.5 0 -191.5 -51t-139 -139t-51 -191.5t51 -191.5t139 -139t191.5 -51t191.5 51t139 139t51 191.5t-51 191.5t-139 139t-191.5 51zM703 342h-202q-7 0 -13 2q-19 8 -19 29v203q0 13 9.5 22t22.5 9t22 -9t9 -22v-172h171q13 0 22.5 -9t9.5 -22t-9.5 -22
t-22.5 -9z" />
    <glyph glyph-name="dianzan" unicode="&#xe676;" 
d="M885 473h-238q19 69 25.5 126.5t2 93.5t-14 63.5t-23 41t-25.5 21.5t-20 10l-9 2q-22 0 -35.5 -8.5t-16 -18.5t-3.5 -21.5t-2 -12.5q0 -47 -18 -94.5t-44 -82.5t-52 -63t-44 -43l-19 -14v-472q0 -22 17.5 -37t37 -21t34.5 -6h357q10 0 19.5 9t16.5 22t13 26t9 22l3 10
q40 133 62 230.5t24 128.5l3 31q0 17 -6.5 29.5t-15 17.5t-17.5 7.5t-15 2.5h-6v0v0zM885 473zM252 473h-143q-13 0 -20.5 -7.5t-8.5 -14.5l-1 -7l30 -476q0 -14 7.5 -21.5t15.5 -8.5l7 -1h123q12 0 18.5 5t6.5 10l1 5v480q0 16 -9 25t-18 10l-9 1v0v0zM252 473z" />
    <glyph glyph-name="notpass" unicode="&#xe6a1;" 
d="M737 197h1q68 -69 68.5 -69.5l4 -4t4.5 -5l4 -6t2.5 -6.5t-0.5 -8q-1 -4 -4 -8q-5 -6 -14.5 -7t-15.5 4q-13 12 -38.5 39t-40.5 41q-1 0 -1 -1l-6 -5q-2 -2 -6 -6.5t-7 -6.5q-27 -28 -41 -41l-7.5 -7.5t-10.5 -11.5q-8 -5 -17 -3t-13 8q-1 2 -1 4q-1 2 -1 3q0 6 -1 8.5
t2 6.5t4 5.5t4.5 4.5t4.5 4q16 16 47 48l14 14q5 5 5 6l-2 2t-2 2.5t-2 2.5l-13 13l-42 42q-1 1 -7.5 7t-10 10.5t-4.5 9.5q-4 13 10 21q1 0 3.5 0.5t3.5 1.5q5 0 9 -1t7.5 -3.5t5 -3.5t5.5 -5l5 -5q8 -7 23 -22.5t23 -22.5q1 -1 5.5 -6t8 -8.5t5.5 -4.5q12 12 24.5 25
t28.5 29l25 25q7 5 16.5 3t13.5 -8q3 -5 3 -12.5t-3 -12.5l-79 -79v0zM372 289h131q8 0 13.5 -5.5t5.5 -13t-5.5 -13t-13.5 -5.5h-131q-8 0 -13.5 5.5t-5.5 13t5.5 13t13.5 5.5v0zM616 515h-244q-8 0 -13.5 5.5t-5.5 13.5t5.5 13.5t13.5 5.5h244q8 0 13.5 -6t5.5 -13.5
t-5.5 -13t-13.5 -5.5v0zM616 383h-244q-8 0 -13.5 5.5t-5.5 13.5t5.5 13.5t13.5 5.5h244q8 0 13.5 -5.5t5.5 -13.5t-5.5 -13.5t-13.5 -5.5v0zM766 327q-7 0 -12.5 5.5t-5.5 13.5v0.5v0.5v0v261q0 25 -5 32t-33 7h-434q-27 0 -32 -7q-4 -6 -4 -32v-426q0 -33 6 -38
q7 -5 27 -5h267v0h0.5h0.5q8 0 13.5 -5.5t5.5 -13.5t-5.5 -13.5t-13.5 -5.5q-4 0 -8 2h-260q-17 0 -22 1q-32 10 -43 34q-6 12 -6 55v94v249v71q0 30 4 38q10 25 31 34q3 2 11 4q1 1 3.5 1t3.5 1h476q0 -1 3 -1t3 -1l12 -4q21 -9 31 -34q4 -9 4 -38v-255q1 -4 1 -6
q0 -8 -5.5 -13.5t-13.5 -5.5v0z" />
    <glyph glyph-name="wenben" unicode="&#xe600;" 
d="M683 612q-24 0 -40.5 16.5t-16.5 39.5v228l284 -284h-227zM683 555h227v-569q0 -47 -33 -80.5t-81 -33.5h-568q-48 0 -81 33.5t-33 80.5v796q0 47 33 80.5t81 33.5h341v-228q0 -47 33.5 -80t80.5 -33zM256 43h341v57h-341v-57zM256 213h512v57h-512v-57zM256 441v-57h512
v57h-512z" />
    <glyph glyph-name="dizhi-copy" unicode="&#xe61c;" 
d="M512 832q-146 0 -249 -103t-103 -249q0 -53 34 -127.5t76.5 -136.5t98 -130.5t80 -95.5t40.5 -44q9 -10 23 -10h1q14 0 23 11l109 125q219 268 219 408q0 146 -103 249t-249 103zM512 320q-66 0 -113 47t-47 113t47 113t113 47t113 -47t47 -113t-47 -113t-113 -47z" />
    <glyph glyph-name="yonghu" unicode="&#xe604;" 
d="M514 886q-102 0 -195 -40t-160 -107t-107 -160t-40 -195t40 -195t107 -160t160 -107t195 -40t195 40t160.5 107t107 160t39.5 195t-39.5 195t-107 160t-160.5 107t-195 40zM514.5 844q93.5 0 178.5 -36.5t146.5 -98t98 -147t36.5 -178.5q0 -166 -106 -294q-92 38 -221 77
q-5 1 -6 4.5t-1 21.5q0 22 16 56q17 36 22 76q23 26 33 79q9 43 -1 67l-1 4q-2 8 0.5 38t6.5 56q4 23 -4 58.5t-32 65.5q-48 62 -141 68h-42q-92 -6 -141 -68q-23 -30 -31.5 -65.5t-4.5 -58.5q5 -26 7 -56t1 -37q-1 -2 -2 -5q-9 -24 -1 -67q11 -53 33 -79q5 -40 23 -76
q9 -20 9 -57q0 -17 -1 -21t-6 -5q-50 -15 -119 -39.5t-101 -38.5q-109 128 -109 296q0 93 36.5 178.5t98 147t147 98t179 36.5zM193 55q98 40 203 71q12 4 20 11t11 17.5t4 17.5t1 20q0 47 -14 75q-16 34 -19 69q-1 9 -7 14q-16 14 -26 63q-6 30 -1 43q2 5 3 9q3 16 1 50
t-7 62q-3 14 3 40.5t24 49.5q37 47 109 52h40q72 -5 109 -52q18 -23 24.5 -49.5t3.5 -40.5q-5 -28 -7.5 -62t0.5 -50q1 -4 3 -9q5 -13 -1 -43q-9 -49 -25 -63q-7 -5 -7 -14q-3 -35 -20 -69q-20 -43 -20 -74q0 -13 1 -20t4 -17.5t11 -17.5t21 -11q107 -32 203 -70
q-64 -63 -147.5 -98t-176.5 -35q-92 0 -175 34.5t-146 96.5z" />
    <glyph glyph-name="guangguan" unicode="&#xe60a;" 
d="M878 818h-732q-51 0 -86.5 -35t-35.5 -84v-479q0 -52 29.5 -89t78.5 -37h253l127 -145l127 145h253q49 0 78.5 37t29.5 89v479q0 49 -35.5 84t-86.5 35zM258.5 392q-22.5 0 -38 15.5t-15.5 38t15.5 38.5t38 16t38.5 -16t16 -38.5t-16 -38t-38.5 -15.5zM512 392
q-22 0 -38 15.5t-16 38t16 38.5t38 16t38 -16t16 -38.5t-16 -38t-38 -15.5zM765.5 392q-22.5 0 -38.5 15.5t-16 38t16 38.5t38.5 16t38 -16t15.5 -38.5t-15.5 -38t-38 -15.5z" />
    <glyph glyph-name="alipay" unicode="&#xe6eb;" 
d="M1019 46v-6q0 -67 -48 -115t-114 -48h-690q-66 0 -114 48t-48 115v688q0 67 48 115t114 48h690q67 0 114.5 -48t47.5 -115v-524v-158zM279 111q-46 0 -81.5 13t-54 35t-25.5 47t2.5 51t32.5 47q18 15 47 25t52 11q64 7 128.5 -12.5t155.5 -64.5q-57 -72 -123.5 -112
t-133.5 -40v0zM840 255q-3 1 -156 57q53 92 85 213h-200v71h245v41h-245v120h-100q-8 0 -12.5 -4.5t-4.5 -9.5l-1 -4v-104h-247v-41h247v-69h-205v-40h398q-19 -69 -57 -140q-246 82 -353 54q-75 -19 -111 -63q-36 -42 -41 -94t16.5 -95.5t74 -73t124.5 -29.5q88 0 172 46.5
t152 130.5q60 -29 159.5 -73t168.5 -73t70 -29v156q-21 0 -179 53z" />
    <glyph glyph-name="asmkticon0151" unicode="&#xe7c8;" 
d="M685 531zM634 531q0 21 15 36t36 15t36 -15t15 -36t-15 -36t-36 -15t-36 15t-15 36zM827 704h-631q-28 0 -48 -20t-20 -49v-503q0 -28 20 -48.5t49 -20.5h631q28 0 48.5 20.5t20.5 48.5v503q-1 29 -21 49t-49 20zM197 666h631q12 0 21 -9t9 -22v-492l-175 194
q-19 21 -48 19t-45 -26l-36 -54l-99 115q-20 23 -50 22t-48 -25l-191 -254v501q0 13 9 22t22 9zM197 102q-2 0 -9 2q6 2 8 6l191 254q8 10 19 10q13 0 20 -9l106 -122l-28 -43q-10 -15 5 -27q15 -9 27 6l86 129q6 8 15.5 9t16.5 -7l184 -202q0 -1 1.5 -2t2.5 -2
q-7 -3 -14 -3z" />
    <glyph glyph-name="tianjiashipin" unicode="&#xe61e;" 
d="M990 652q-34 22 -78 0l-207 -100v42q0 46 -32.5 78.5t-78.5 32.5h-483q-46 0 -78.5 -28t-32.5 -68v-435q0 -47 19 -79t48 -32h44v44h-44q-3 0 -8 7t-10 23.5t-5 36.5v435q0 21 20 36.5t47 15.5h483q28 0 47.5 -20t19.5 -47v-420q0 -27 -19.5 -47t-47.5 -20h-343v-44h343
q46 0 78.5 32.5t32.5 78.5v41l207 -101q21 -10 41.5 -10t36.5 10q34 21 34 71v397q0 49 -34 70v0zM979 185q0 -25 -13 -33t-35 2l-226 111v238l226 109q22 11 35 2.5t13 -32.5v-397v0zM979 185zM129 544q0 -14 9.5 -23.5t22.5 -9.5t22.5 9.5t9.5 23.5q0 13 -9.5 22.5
t-22.5 9.5t-23 -9q-9 -10 -9 -23v0zM129 544z" />
    <glyph glyph-name="qianbi" unicode="&#xe64f;" 
d="M692.5 836q-104.5 0 -175 -30.5t-70.5 -76.5v-182q-57 15 -127 15q-106 0 -175.5 -30.5t-69.5 -76.5v-431h6q18 -37 84 -60t155 -23q107 0 176.5 30.5t69.5 77.5v38q57 -14 126 -14q105 0 175.5 30.5t70.5 76.5v549q0 46 -70.5 76.5t-175 30.5zM454 364q13 3 25 8
q24 8 42 19q5 3 9 6v-62q0 -18 -36 -37q-18 -10 -43 -17q-57 -17 -131 -17q-90 0 -149.5 23t-59.5 48v62q68 -50 209 -50q74 0 134 17zM454 244q13 4 25 8q7 3 18 7q13 6 27 15q4 2 6 4v-86q0 -19 -36 -38q-10 -5 -24 -10q-63 -24 -150 -24q-90 0 -149.5 23.5t-59.5 48.5v86
q68 -50 209 -50q75 0 134 16zM111 134q68 -49 209 -49q106 0 177 31q14 6 27 15l6 4v-86v-2q-2 -25 -61 -47.5t-149 -22.5t-149.5 23.5t-59.5 48.5v85zM512 429q-10 -8 -23 -14q-6 -4 -14 -7q-10 -4 -24 -8q-57 -17 -131 -17q-90 0 -149.5 23.5t-59.5 48.5t59.5 48t149.5 23
q73 0 131 -17q15 -4 25 -8q54 -22 54 -46q0 -13 -18 -26zM483 729q0 25 59.5 48.5t150 23.5t150 -23.5t59.5 -48.5t-59.5 -48t-150.5 -23q-61 0 -110.5 11.5t-74 28t-24.5 31.5zM483 610v62q68 -50 209 -50t210 50v-62q0 -25 -59.5 -48t-150 -23t-150 23t-59.5 48zM483 536
v17q68 -50 209 -50t210 50v-86q0 -25 -59.5 -48.5t-150.5 -23.5q-69 0 -126 16v44q0 50 -83 81zM566 374q57 -15 126 -15q142 0 210 50v-86q0 -25 -59.5 -48t-150.5 -23q-70 0 -126 16v106zM566 230q57 -14 126 -14q141 0 210 50v-86q0 -25 -59.5 -48.5t-150.5 -23.5
q-70 0 -126 16v106z" />
    <glyph glyph-name="jiaoyimimashezhichenggong" unicode="&#xe632;" 
d="M947 502q-3 12 3 23t19 15q12 3 23 -3.5t15 -18.5q17 -66 17 -134q0 -104 -40.5 -199t-109 -163.5t-163.5 -109t-199 -40.5t-199 40.5t-163.5 109t-109 163.5t-40.5 199q0 139 68.5 257t186.5 186.5t257 68.5q106 0 200 -40.5t166 -113.5q9 -9 8.5 -21.5t-8.5 -21.5
q-10 -9 -22.5 -8.5t-20.5 8.5q-65 66 -148.5 101t-174.5 35q-92 0 -175.5 -36t-143.5 -96t-96 -143.5t-36 -175.5t36 -175.5t96 -143.5t143.5 -96t175.5 -36t175.5 36t143.5 96t96 143.5t36 175.5q0 61 -16 118zM230 428q-8 9 -7.5 22t10 21t22 7.5t20.5 -9.5l231 -249
l446 473q9 10 21.5 10t21.5 -9q10 -8 10 -20.5t-9 -22.5l-446 -473l-45 -48l-45 48l-230 250v0z" />
    <glyph glyph-name="weixin1" unicode="&#xe64b;" horiz-adv-x="1244" 
d="M1244 239q0 87 -52 162t-138.5 118t-183.5 43q-103 0 -189.5 -43t-136 -117.5t-49.5 -162t49.5 -162t136 -117.5t189.5 -43q44 0 132 22l120 -67l-33 111q71 54 113 119.5t42 136.5zM748 295q-16 0 -30 14t-14 30.5t14 30.5t30 14q24 0 39.5 -13.5t15.5 -31t-15.5 -31
t-39.5 -13.5zM990 295q-16 0 -29.5 14t-13.5 30.5t13.5 30.5t29.5 14q24 0 40 -13.5t16 -31t-16 -31t-40 -13.5zM842 586q19 0 42 -2q-28 134 -154.5 223t-289.5 89q-119 0 -220.5 -50t-160.5 -137t-59 -191q0 -176 176 -301l-44 -134l154 78q7 -1 30.5 -6t33 -6.5
t27.5 -4.5t32.5 -4t30.5 -1q19 0 41 2q-13 47 -13 93q0 96 49.5 177t135.5 128t189 47zM605 707q25 0 40 -15.5t15 -40.5t-15 -40t-40 -15q-26 0 -46 15.5t-20 39.5t20 40t46 16zM297 596q-26 0 -46 15.5t-20 39.5t20 40t46 16q25 0 40 -15.5t15 -40.5t-15 -40t-40 -15z" />
    <glyph glyph-name="fenlei" unicode="&#xe619;" 
d="M806 474h-588q-11 0 -18.5 7.5t-7.5 18t7.5 18t18.5 7.5h588q11 0 18.5 -7.5t7.5 -18t-7.5 -18t-18.5 -7.5zM806 282h-588q-11 0 -18.5 7.5t-7.5 18t7.5 18t18.5 7.5h588q11 0 18.5 -7.5t7.5 -18t-7.5 -18t-18.5 -7.5zM806 90h-588q-11 0 -18.5 7.5t-7.5 18t7.5 18
t18.5 7.5h588q11 0 18.5 -7.5t7.5 -18t-7.5 -18t-18.5 -7.5z" />
    <glyph glyph-name="youhuiquan" unicode="&#xe6e6;" 
d="M309 525h37v-118h-37v118zM309 361h37v-118h-37v118zM981 507v165q0 15 -11 25.5t-26 10.5h-864q-15 0 -26 -10.5t-11 -25.5v-164q40 -13 65.5 -47t25.5 -77t-25.5 -77.5t-65.5 -46.5v-164q0 -15 11 -25.5t26 -10.5h864q15 0 26 10.5t11 25.5v163q-40 13 -65.5 47
t-25.5 77t25.5 77.5t65.5 46.5zM853 383.5q0 -47.5 24.5 -87.5t66.5 -61v-139v0h-598v83h-37v-83h-229v0v139q42 21 66.5 61t24.5 87.5t-24.5 87.5t-66.5 61v140v0h229v-83h37v83h598v0v-140q-42 -21 -66.5 -61t-24.5 -87.5zM714 361q7 0 12.5 5.5t5.5 12.5v1q0 8 -5.5 13
t-12.5 5h-83l92 92q5 5 5 12.5t-5 12.5l-1 1q-5 5 -12.5 5t-12.5 -5l-90 -90l-90 90q-5 5 -12.5 5t-12.5 -5l-1 -1q-5 -5 -5 -12.5t5 -12.5l92 -92h-83q-8 0 -13 -5t-5 -13v-1q0 -7 5 -12.5t13 -5.5h89v-45h-89q-8 0 -13 -5.5t-5 -12.5v-1q0 -7 5 -12.5t13 -5.5h89v-42
q0 -7 5 -12.5t12 -5.5h1q8 0 13 5.5t5 12.5v42h89q7 0 12.5 5.5t5.5 12.5v1q0 7 -5.5 12.5t-12.5 5.5h-89v45h89z" />
    <glyph glyph-name="pinglun-copy" unicode="&#xe72b;" 
d="M511 50v0q-9 1 -14 8l-65 86q-4 6 -3 13.5t7 12t13.5 3.5t11.5 -7l51 -68l56 68q5 7 14 7h288v503h-718v-503h184q7 0 12.5 -5.5t5.5 -13t-5.5 -12.5t-12.5 -5h-202q-8 0 -13 5t-5 13v539q0 8 5 13t13 5h754q8 0 13 -5t5 -13v-539q0 -8 -5 -13t-13 -5h-298l-65 -80
q-5 -7 -14 -7v0zM469 438v0q0 -18 12.5 -30.5t30.5 -12.5t30.5 12.5t12.5 30.5v0v0q0 17 -12.5 29.5t-30.5 12.5t-30.5 -12.5t-12.5 -29.5v0zM299 438v0q0 -18 12.5 -30.5t30.5 -12.5t30.5 12.5t12.5 30.5v0v0q0 17 -12.5 29.5t-30.5 12.5t-30.5 -12.5t-12.5 -29.5v0z
M639 438v0q0 -18 12.5 -30.5t30.5 -12.5t30.5 12.5t12.5 30.5v0v0q0 17 -12.5 29.5t-30.5 12.5t-30.5 -12.5t-12.5 -29.5v0z" />
    <glyph glyph-name="q08" unicode="&#xe64e;" 
d="M242 578h77v77h-77v-77zM860 -41h77v77h-77v-77zM860 191h-77v155h-232v-387h77v309h78v-154h231v77v155h-77v-155zM706 -41h77v77h-77v-77zM87 423h387v386h-387v-386zM164 732h232v-232h-232v232zM242 114h77v77h-77v-77zM87 -41h387v387h-387v-387zM164 268h232v-232
h-232v232zM783 655h-77v-77h77v77zM551 809v-386h386v386h-386zM860 500h-232v232h232v-232z" />
    <glyph glyph-name="lingquan" unicode="&#xe61d;" 
d="M1024 28h-1024v81l17 4q24 6 37 22.5t13 42t-13 42t-37 22.5l-17 3v87l17 4q24 5 37 22t13 42t-13 42t-37 22l-17 4v87l17 3q50 12 50 65q0 25 -13 42t-37 22l-17 4v49h1024v-46l-13 -6q-17 -8 -35.5 -27t-18.5 -38.5t18.5 -38.5t35.5 -27l13 -6v-80l-13 -5
q-17 -8 -35.5 -27t-18.5 -39t18.5 -39t35.5 -26l13 -6v-80l-13 -6q-17 -8 -35.5 -27t-18.5 -38.5t18 -38.5t36 -27l13 -6v-78v0zM44 72h935v6q-26 16 -46 42.5t-20 57t20 57t46 42.5v24q-26 16 -46 42t-20 56.5t20 57t46 42.5v24q-25 16 -45.5 44t-20.5 59t28 70h-850
q20 -35 20 -70q0 -37 -17.5 -65.5t-48.5 -40.5v-18q31 -12 48.5 -39t17.5 -63t-17.5 -63t-48.5 -39v-18q31 -12 48.5 -39t17.5 -63.5t-17.5 -63.5t-48.5 -39v-3h-1zM668 295h-134v67h133q9 0 15.5 6.5t6.5 15.5t-6.5 15.5t-15.5 6.5h-103l110 198q4 8 1.5 18.5t-10.5 15
t-17 2.5t-13 -10l-121 -211l-126 221q-5 8 -14 10.5t-16.5 -2t-10.5 -16t2 -19.5l115 -207h-109q-9 0 -15.5 -6.5t-6.5 -15.5t6.5 -15.5t15.5 -6.5h135v-67h-134q-9 0 -15.5 -6.5t-6.5 -15.5t6.5 -16t15.5 -7h134v-80q0 -9 6.5 -15.5t15.5 -6.5t15.5 6.5t6.5 15.5v80h134
q9 0 15.5 7t6.5 16t-6.5 15.5t-15.5 6.5v0z" />
    <glyph glyph-name="comment" unicode="&#xe635;" 
d="M822 49h-671q-36 0 -61.5 25.5t-25.5 62.5v590q0 36 25.5 61.5t61.5 25.5h721q37 0 62.5 -25.5t25.5 -61.5v-765zM359 508q-32 0 -54 -22.5t-22 -54t22 -54t54 -22.5t54 22.5t22 54t-22 54t-54 22.5v0zM665 508q-32 0 -54.5 -22.5t-22.5 -54t22.5 -54t54.5 -22.5t54 22.5
t22 54t-22 54t-54 22.5v0z" />
    <glyph glyph-name="faxian-copy" unicode="&#xe797;" 
d="M511 323q28 0 47.5 20t19.5 47.5t-19.5 47.5t-47.5 20t-48 -20t-20 -47.5t20 -47.5t48 -20zM509.5 833q-91.5 0 -174.5 -35.5t-143 -95.5t-95.5 -143.5t-35.5 -174.5t35.5 -174t95.5 -143t143 -96t174.5 -36t174.5 36t143 96t95.5 143t35.5 174t-35.5 174.5t-95.5 143.5
t-143 95.5t-174.5 35.5zM191 486l-9 -25q-4 -14 -19 -16q-5 0 -11 1q-9 4 -13 12.5t-1 17.5l8 25q5 14 19 16q6 1 11 -1q9 -3 13.5 -12t1.5 -18zM241 559q-7 -9 -19 -9q-8 0 -14 4q-8 6 -9.5 15.5t4.5 17.5q3 5 10 13t28.5 28.5t46 39.5t65.5 42.5t86 41.5q4 1 8 1
q17 0 22 -15q4 -9 0 -18t-13 -13q-41 -15 -78.5 -36.5t-60.5 -39t-42.5 -36t-25 -25.5t-8.5 -11zM590 291l-308 -136l136 309l322 149z" />
    <glyph glyph-name="huodong" unicode="&#xe64d;" 
d="M794 845q-118 -51 -177 -51q-42 0 -84.5 16t-72 35t-72 35t-84.5 16q-27 0 -71 -13t-75 -25l-31 -13l178 -461q117 51 176 51q42 0 84.5 -16t72.5 -35t72.5 -35t85.5 -16q26 0 70 12.5t75 25.5l32 13zM51 841l250 -969l60 5l-260 977z" />
    <glyph glyph-name="shuangjiantou" unicode="&#xe69f;" 
d="M939 421l-403 396q-13 12 -31 12t-30.5 -12.5t-12.5 -30t12 -30.5l375 -368l-375 -368q-12 -13 -12 -30.5t12.5 -30t30.5 -12.5t31 12l403 396q13 13 12 33q1 20 -12 33v0v0zM635 388q2 20 -12 33l-403 396q-12 12 -30 12t-31 -12.5t-13 -30t13 -30.5l375 -368l-375 -368
q-13 -13 -13 -30.5t13 -30t31 -12.5t30 12l403 396q14 13 12 33v0v0zM635 388z" />
    <glyph glyph-name="liwu" unicode="&#xe737;" 
d="M890 624h-181q30 35 30 80q0 51 -36.5 87.5t-88.5 36.5q-31 0 -58 -14.5t-44 -38.5q-17 24 -44 38.5t-58 14.5q-52 0 -88.5 -36.5t-36.5 -87.5q0 -45 30 -80h-181q-27 0 -46.5 -19.5t-19.5 -47.5v-153q0 -24 15.5 -42.5t38.5 -23.5v-332q0 -27 19.5 -46.5t47.5 -19.5h646
q28 0 47.5 19.5t19.5 46.5v332q23 5 38.5 23.5t15.5 42.5v153q0 28 -19.5 47.5t-46.5 19.5zM614 784q33 0 56.5 -23.5t23.5 -56.5t-23.5 -56.5t-56.5 -23.5h-80v80q0 33 23.5 56.5t56.5 23.5zM330 704q0 33 23.5 56.5t56.5 23.5t56.5 -23.5t23.5 -56.5v-80h-80
q-33 0 -56.5 23.5t-23.5 56.5zM112 404v153q0 9 6.5 15.5t15.5 6.5h276h80v-197h-356q-9 0 -15.5 6.5t-6.5 15.5zM167 6v330h323v-352h-301q-9 0 -15.5 6.5t-6.5 15.5zM857 6q0 -9 -6.5 -15.5t-15.5 -6.5h-301v352h323v-330zM912 404q0 -9 -6.5 -15.5t-15.5 -6.5h-356v197
h80h276q9 0 15.5 -6.5t6.5 -15.5v-153z" />
    <glyph glyph-name="weibo1" unicode="&#xe6e9;" horiz-adv-x="1079" 
d="M0 896v0v0zM808 362q-16 3 -21 10t-2 12l3 6q1 1 2.5 3t4.5 9.5t5 14.5t3 18t-0.5 20t-6.5 20.5t-14 20.5q-16 15 -41 19.5t-50 0.5t-47.5 -10t-36.5 -11l-15 -7q-11 -3 -18.5 -4.5t-11 0.5t-6 3.5t-1.5 7.5q0 7 1 11q0 4 3 14q2 9 3 15q0 13 -1.5 25t-7.5 26.5t-16.5 23
t-26.5 14.5t-41.5 3.5t-58.5 -13.5q-39 -13 -79 -39.5t-69.5 -55t-54 -55t-38.5 -43.5l-12 -18q-37 -48 -54.5 -96t-16.5 -72v-24q6 -53 32.5 -95.5t62.5 -68.5t85.5 -44.5t94.5 -27t95 -11.5q83 -7 171.5 12.5t165 67.5t107.5 115q19 39 19.5 73.5t-12 56.5t-32 38.5
t-36.5 24.5t-31 10v0zM468 15q-120 -5 -204 47t-84 133q0 79 83.5 136.5t205 63t205 -40.5t83.5 -125q0 -80 -85 -144t-204 -70v0zM436 324q-32 -3 -58 -15t-40.5 -27t-24.5 -32t-14 -34t-5 -31t-1 -22l1 -8v-5q0 -3 2.5 -13t6.5 -18.5t12.5 -18.5t21.5 -17
q73 -36 136.5 -22t102.5 65q16 18 21 46t-2 56.5t-25 52t-53 36.5t-81 7v0zM396 113q-7 -1 -13 -0.5t-11 2.5l-10 4t-8.5 6t-6 8t-4.5 9t-2 10q0 13 7 24.5t18.5 20t26.5 9.5q10 1 19.5 -0.5t16 -5.5t11.5 -9t7 -12t2 -14q0 -13 -7 -24t-19.5 -19t-26.5 -9v0zM491 194
q-8 -6 -16.5 -5.5t-11.5 7.5l-3 4q-1 2 -1 5v4q0 3 1 6l3 4q1 2 3 3l3 5q9 7 17.5 5.5t11.5 -8.5q4 -5 3.5 -10.5t-3.5 -10.5t-7 -10v1zM886 427q7 0 12.5 3t9 8t4.5 11q1 1 1 3q14 127 -89 145q-30 6 -56 1q-8 0 -13.5 -3.5t-9.5 -10t-4 -12.5q0 -12 8 -19.5t19 -7.5
q87 20 94 -56q2 -19 -2 -36q0 -11 7.5 -18.5t18.5 -7.5v0zM868 741q-50 11 -132 -4q-1 0 -2 -2l-1 -2l-2 -1q-12 -3 -19.5 -13.5t-7.5 -23.5q0 -16 11 -27.5t26 -11.5h4q1 0 5 1t8.5 2t9.5 2.5t9 3t15 1.5t27 -1.5t35.5 -8t39 -17t39 -28t34.5 -41.5q29 -65 11 -127
q0 -1 -0.5 -2t-1.5 -6q-1 -4 -2.5 -8t-2.5 -10t-1 -11q0 -10 5.5 -16.5t14 -9.5t19.5 -3q31 0 37 38q13 44 15 83.5t-5.5 69.5t-22 56.5t-33.5 44.5t-42.5 33.5t-45 24t-45.5 14.5h1v0z" />
    <glyph glyph-name="clock" unicode="&#xe644;" 
d="M512 12q-101 0 -187 49.5t-135.5 135.5t-49.5 187t49.5 187t135.5 135.5t187 49.5t187 -49.5t135.5 -135.5t49.5 -187t-49.5 -187t-135.5 -135.5t-187 -49.5zM512 710q-89 0 -164 -43.5t-118.5 -118.5t-43.5 -164t43.5 -164t118.5 -118.5t164 -43.5t164 43.5t118.5 118.5
t43.5 164t-43.5 164t-118.5 118.5t-164 43.5zM675 314h-185h-1v0q-10 0 -17 7t-7 16v233q0 10 7 16.5t16.5 6.5t16.5 -6.5t7 -16.5v-209h163q9 0 16 -7t7 -16.5t-7 -16.5t-16 -7z" />
    <glyph glyph-name="remensousuo" unicode="&#xe662;" 
d="M512 -76q-245 0 -342 129q-25 34 -39 74t-16.5 70.5t0 62.5t5 44t4.5 19l12 43l21 -58q17 -33 23.5 -44t22 -27.5t43.5 -33.5q8 -5 16 -12q-34 147 61 270q43 56 76.5 111.5t50 92t27.5 70.5t13 44.5t2 15.5l5 50l34 -36q10 -10 24 -26.5t47.5 -62t59.5 -91t49 -108
t27 -119.5q5 -59 -4 -116q10 10 16 17q26 29 46 70t26 61t6 27l13 63l30 -55q26 -50 40.5 -110.5t8 -138t-44.5 -138.5q-95 -158 -363 -158zM159 225q3 -86 47 -145q84 -111 306 -111q243 0 325 136q25 42 33 97t2.5 103t-20.5 94q-25 -78 -69 -127l-20 -20q-34 -34 -69 -92
q-9 -20 -17 -29l-37 24q8 15 16 28q46 93 37 216q-4 49 -22.5 102t-46 100t-50 80t-47.5 63q-40 -144 -169 -311q-34 -45 -48 -95.5t-11.5 -87t14 -72.5t18.5 -48.5t11 -18.5l-36 -27q-3 5 -12 15.5t-30.5 31.5t-42.5 34q-39 25 -62 60z" />
    <glyph glyph-name="jia2" unicode="&#xe65f;" 
d="M436 892h152v-437h436v-142h-436v-436h-152v436h-436v142h436v437v0z" />
    <glyph glyph-name="daipingjia" unicode="&#xe646;" 
d="M913 700q0 27 -18 45.5t-43 18.5h-673q-25 0 -43 -18.5t-18 -45.5v-466q0 -27 18 -45.5t43 -18.5h255l82 -85l81 85h255q25 0 43 18.5t18 45.5v76v0q-1 8 -6.5 14t-13.5 6t-14 -6t-6 -14h-1v-55q0 -18 -11.5 -30t-28.5 -12h-255l-61 -64l-61 64h-256q-16 0 -28 12t-12 30
v424q0 18 12 30t28 12h633q17 0 28.5 -12t11.5 -30v-201h1q0 -1 -0.5 -1.5t-0.5 -1.5q0 -8 6 -14.5t14.5 -6.5t14.5 6.5t6 14.5q0 1 -0.5 1.5t-0.5 1.5h1v222zM716 415h-383q-8 0 -13 -6t-5 -14t5 -14t13 -6h383q7 0 12.5 6t5.5 14t-5.5 14t-12.5 6v0v0zM716 551h-383
q-8 0 -13 -6t-5 -14.5t5 -14t13 -5.5h383q7 0 12.5 5.5t5.5 14t-5.5 14.5t-12.5 6v0v0z" />
    <glyph glyph-name="guanbi1" unicode="&#xe641;" 
d="M507 -128q-103 0 -197 40.5t-162 109.5t-108 163.5t-40 198.5t40 199t108 163.5t162 109t197 40.5t196.5 -40.5t161.5 -109t108.5 -163.5t40.5 -199t-40.5 -198.5t-108 -163.5t-161.5 -109.5t-197 -40.5v0zM749 575q11 11 11 27t-11 27t-27 11t-27 -11l-188 -191
l-188 191q-12 11 -27.5 11t-26.5 -11t-11 -27t11 -27l188 -190l-188 -191q-11 -11 -11 -27t11 -27t26.5 -11t27.5 11l188 190l189 -190q11 -11 26.5 -11t27 11t11.5 27t-12 27l-188 191l188 190v0v0z" />
    <glyph glyph-name="fahuo01" unicode="&#xe61a;" horiz-adv-x="1035" 
d="M254 -62q-41 0 -73.5 25t-44.5 64l-1 7h-98q-11 0 -18.5 7.5t-7.5 18.5v592q0 56 39 96t95 40h335q56 0 96 -40t40 -96v-288h157q11 0 19 -8t8 -19.5t-8 -19.5t-19 -8h-157v-221h52l2 7q11 39 44 64t74 25t73.5 -25t44.5 -64l1 -7h62v247q0 97 -44 157q-46 60 -121 60
h-188v54h188q98 0 159 -75t61 -196v-275q0 -11 -8.5 -18.5t-20.5 -7.5h-88l-1 -7q-12 -39 -44.5 -64t-73.5 -25t-74 25t-44 64l-2 7h-294l-2 -7q-11 -39 -44 -64t-74 -25zM254 128q-28 0 -48 -20t-20 -48t20 -48t48 -20t48 20t20 48t-20 48t-48 20zM788 128q-28 0 -48 -20
t-20 -48t20 -48t48 -20t48 20t20 48t-20 48t-48 20zM254 184q41 0 74 -25t44 -64l2 -7h187v564q0 33 -23.5 57t-57.5 24h-335q-33 0 -56.5 -23.5t-23.5 -57.5v-564h70l1 7q12 39 44.5 64t73.5 25v0z" />
    <glyph glyph-name="dianpu-copy" unicode="&#xe60d;" 
d="M840 805l-7 11h-613l-7 -9q-55 -71 -86 -134.5t-36.5 -110t-1.5 -77t16 -55.5q20 -41 58 -65.5t81 -24.5h5q86 3 146 65q53 -61 133 -61q83 0 136 64q81 -66 153 -66q62 0 105 50q26 30 32.5 72.5t-4.5 88.5t-25.5 87t-36.5 81.5t-31.5 57t-16.5 26.5zM244 388
q-27 0 -53.5 16.5t-42.5 47.5q-9 19 -12 44t2.5 64t32 93t73.5 115h563q17 -27 34 -59t34 -74t26 -79.5t6 -73.5t-21 -58q-29 -34 -69 -34q-27 0 -59.5 15.5t-48.5 28t-29 24.5v166h-48v-179q-39 -53 -104 -53q-29 0 -54.5 13t-36 23.5t-17.5 22.5v173h-48v-172
q-9 -12 -21.5 -23.5t-41.5 -25.5t-62 -15h-3v0zM804 100q-10 -24 -28 -32h-496q-8 0 -14.5 2.5t-11.5 7t-9 9.5t-6 10t-4 9.5t-2.5 7l-0.5 2.5v156h-48v-160q6 -32 30 -62t66 -30l506 1q6 1 14.5 5t25 20.5t25.5 41.5l1 188h-48v-176z" />
    <glyph glyph-name="shoucang" unicode="&#xe695;" 
d="M749 467q79 0 145 -44v141q0 39 -26.5 66t-63.5 27h-397q-5 40 -46 85.5t-67 45.5h-126q-62 0 -89 -53q-15 -23 -15 -50v-3v-10v-10v-143l1 -402q0 -39 26.5 -66t63.5 -27h392q-60 75 -60 173q0 112 77 191t185 79zM749.5 414q-87.5 0 -149.5 -63.5t-62 -153.5t62 -153.5
t149.5 -63.5t149 63.5t61.5 153.5t-61.5 153.5t-149 63.5zM845 45l-96 52l-96 -52l19 110l-78 78l107 16l48 100l48 -100l107 -16l-77 -78z" />
    <glyph glyph-name="sanjiaojiantouxia" unicode="&#xe602;" 
d="M517 204l375 374h-748z" />
    <glyph glyph-name="sanjiaojiantoushang" unicode="&#xe606;" 
d="M519 581l-375 -374h748z" />
    <glyph glyph-name="yonghu1" unicode="&#xe613;" 
d="M469 884q-26 -1 -49 -13q-27 -2 -54 -9q-26 -5 -45 -28t-26.5 -44.5t-8.5 -38.5q-5 -57 -2 -145q2 -11 -1 -17t-8 -7h-5q-15 1 -20 -25.5t-2 -52.5l3 -27v-4q0 -20 14.5 -36.5t34.5 -19.5q11 -27 36.5 -57.5t50.5 -45.5q15 -9 15.5 -20.5t-6 -28t-5.5 -27.5q-1 0 -1.5 -4
t-2 -11.5t-5 -17t-13 -20t-24 -20t-39.5 -18t-57 -13.5q-38 -5 -70 -13.5t-51 -16t-37.5 -20t-25.5 -18t-20 -19t-15 -15.5q-13 -13 -20 -52.5t-8 -74.5t0 -33h1022l-2.5 37.5t-11 66t-23.5 56.5l-15 15t-20.5 19.5t-26 18t-38.5 19.5t-51 16t-69 14q-33 5 -57.5 13.5
t-38.5 18t-22.5 19.5t-11.5 20.5t-3.5 18t0.5 13.5l1 6l6 65q21 19 43 51.5t32 59.5q7 4 20 12t16.5 10.5t10 8t8.5 11t4 13.5q1 2 1 6t0.5 15t0.5 20.5t-1.5 22t-4.5 21t-9.5 14.5t-14.5 6h-4.5t-6 5.5t-1.5 16.5q4 34 4 69q0 29 -3 59q0 4 -0.5 21t-2.5 29t-6.5 27.5
t-15.5 25.5t-27 13q-14 1 -27 1q-18 0 -36 -2q-8 1 -20 14t-27 25.5t-31 12.5l-74 -12v0z" />
    <glyph glyph-name="jianshao" unicode="&#xe611;" 
d="M77 321h870v126v0h-870v-126z" />
    <glyph glyph-name="home_msg" unicode="&#xe659;" horiz-adv-x="1320" 
d="M1005 143l-71 120v259q0 41 -16.5 85.5t-44.5 81.5q-60 78 -152 111l-1 1q-6 2 -14 4v8q0 36 -26.5 61.5t-63.5 25.5t-63 -25.5t-26 -61.5v-8q-6 -2 -11 -3h-1q-94 -33 -154 -111q-29 -38 -46 -83t-17 -86v-259l-76 -129q-16 -25 0 -51q7 -13 22.5 -22.5t29.5 -9.5h189
q8 -52 52 -84.5t102 -32.5t101 32.5t51 84.5h189q22 0 41.5 18t19.5 40q0 20 -14 34zM617 852q17 0 29.5 -10.5t13.5 -26.5q-26 5 -44 5t-42 -4q1 16 13.5 26t29.5 10zM617 -19q-39 0 -69 18.5t-38 51.5h212q-8 -33 -37 -51.5t-68 -18.5zM705 756q77 -28 129.5 -95.5
t52.5 -138.5v-259v-12l79 -132q3 -6 9 -8h-3v-2q0 -3 -5.5 -7t-8.5 -4h-684q-2 0 -6.5 2.5t-5.5 4.5t-1 4t1 3l83 139q1 2 1 3.5t-0.5 4.5t-0.5 4v259q0 70 53.5 134.5t131.5 100.5q25 10 41 12.5t46 2.5q49 0 88 -16z" />
    <glyph glyph-name="eye-open" unicode="&#xe631;" 
d="M397 383q0 -23 9 -44t25 -37t37 -25t44 -9t44 9t37 25t25 37t9 44t-9 44t-25 37t-37 25t-44 9t-44 -9t-37 -25t-25 -37t-9 -44zM503.5 663q-55.5 0 -108 -15.5t-93 -40t-76.5 -54.5t-61 -59.5t-43 -54.5t-27 -40t-9 -16q4 -6 11.5 -16t32 -39t50.5 -55.5t66 -58.5
t80 -55.5t90 -39t99 -15.5t98.5 15.5t90 40t78 55t65.5 60.5t48.5 55t31.5 40l11 16q-4 6 -10.5 15.5t-28.5 38.5t-47 55t-64 58t-80 55t-95 39t-109.5 16zM512 179q-85 0 -144.5 60t-59.5 144.5t59.5 144t144.5 59.5t144.5 -59.5t59.5 -144t-59.5 -144.5t-144.5 -60z
M512 179z" />
    <glyph glyph-name="dingwei1" unicode="&#xe63a;" 
d="M512 812q114 0 211 -57t154 -154t57 -211t-57 -211t-154 -154t-211 -57t-211 57t-154 154t-57 211t57 211t154 154t211 57zM512 872q-98 0 -187 -38.5t-153.5 -103t-103 -153.5t-38.5 -187t38.5 -187t103 -153.5t153.5 -103t187 -38.5t187 38.5t153.5 103t103 153.5
t38.5 187t-38.5 187t-103 153.5t-153.5 103t-187 38.5zM512 872q-14 0 -22 -8.5t-8 -21.5v-181q0 -13 8 -21.5t22 -8.5t22 8.5t8 21.5v181q0 12 -8.5 21t-21.5 9zM964 420h-181q-13 0 -21.5 -8t-8.5 -22t8.5 -22t21.5 -8h181q13 0 21.5 8t8.5 22q0 12 -8.5 21t-21.5 9z
M241 420h-181q-13 0 -21.5 -8t-8.5 -22t8.5 -22t21.5 -8h181q13 0 21.5 8t8.5 22q0 12 -8.5 21t-21.5 9zM512 149q-14 0 -22 -8t-8 -22v-181q0 -13 8 -21.5t22 -8.5t22 8.5t8 21.5v181q0 12 -8.5 21t-21.5 9z" />
    <glyph glyph-name="tianjiarenyuan" unicode="&#xe62a;" 
d="M847 70q-19 32 -55 55q-43 27 -108 39h-0.5h-0.5q-31 4 -66 13q-59 15 -64 28q0 2 -1 4q-2 10 0 37q3 29 15 56t22.5 40t29.5 34q17 18 23 27q27 38 29 83v1q0 7 -2 13q-2 9 -11 18l-2 2q-1 1 -1 6q4 23 5 41q3 52 -4 88q-1 8 -4 18q-9 33 -28 57h-1v0q-3 3 -8 7.5
t-24 16t-42 20.5t-63 18t-86 12q-24 2 -66 0h-1q-12 -1 -19 -2q-20 -5 -23 -21q-2 -10 4 -23q1 -2 1 -3l-1 -1q-4 -7 -16 -16v-1q-5 -4 -12.5 -11.5t-19.5 -29t-13 -42.5q-11 -63 1 -126q0 -1 1 -2q1 -5 0 -7v0v0q-17 -15 -17 -32v-1q2 -45 29 -83q6 -8 23 -27
q19 -21 29.5 -34t22.5 -40t15 -56q2 -27 1 -37l-2 -4q0 -1 -3 -4t-18.5 -10t-41.5 -14q-33 -8 -67 -13v0h-1q-64 -11 -107 -38q-36 -23 -55 -55q-22 -36 -20 -71v-21q0 -7 5 -12t13 -5h807q7 0 12 5t5 12v20q3 35 -19 71zM831 2v-2v-4h-772v4v1q-1 27 16 54q16 25 44 43
q37 23 93 32q36 5 71 14q77 20 87 50q7 12 3 55q-3 34 -17 65.5t-26 46.5t-32 38q-15 16 -21 24q-20 28 -23 64v1l5 5l1 1q15 13 10 38v1.5v0.5q-11 59 -1 115v3q1 31 33 60q15 12 23 23q3 6 5 12q3 10 -2 22q4 1 7 1h1q39 2 62 0q94 -7 156 -36q30 -13 43 -27
q14 -17 21 -43q3 -8 3 -14l0.5 -0.5l0.5 -0.5q5 -32 3 -80q-1 -17 -4 -38q-3 -20 8 -33l4 -4t3 -4v-3q-3 -36 -23 -64q-5 -8 -20 -24q-21 -23 -32.5 -38t-26 -46.5t-17.5 -65.5q-4 -43 3 -55q11 -30 88 -50q35 -9 70 -14q57 -10 94 -33q29 -18 44 -42q17 -28 15 -53v0z
M986 565h-115v116q0 6 -4.5 10t-10.5 4t-10 -4t-4 -10v-116h-116q-6 0 -10 -4t-4 -10t4 -10.5t10 -4.5h116v-115q0 -6 4 -10.5t10 -4.5t10.5 4.5t4.5 10.5v115h115q6 0 10.5 4.5t4.5 10.5t-4.5 10t-10.5 4z" />
    <glyph glyph-name="rexiao" unicode="&#xe63c;" 
d="M484 833q76 -24 145 -102t109.5 -174.5t33.5 -187.5q-3 -37 -19 -100.5t-20 -87.5q2 1 10.5 10t23 28.5t27.5 41.5t23 51t10 57q54 -111 28 -216q-20 -79 -83.5 -141.5t-143.5 -74.5q8 8 13 40.5t5 71.5t-14.5 76t-42.5 50q1 -31 -7.5 -52.5t-31 -47.5t-27.5 -33
q-10 2 -34 41.5t-39.5 91t1.5 100.5q-33 -24 -54 -51t-29.5 -54.5t-11 -52t3 -52.5t11 -46.5t14 -42.5t11.5 -33q-12 1 -26.5 4t-42.5 17.5t-51 37t-46 66.5t-33 102q-9 48 -5.5 92t17.5 78t34.5 67t45.5 58.5t51.5 53.5t52 52.5t46 54t34 59.5t17 68t-5.5 80z" />
    <glyph glyph-name="dianzan1" unicode="&#xe6cb;" 
d="M293 -32h1v0v0v0v0v0h-1zM211 479h-108q-17 0 -28.5 -12t-11.5 -29v-429q0 -17 11.5 -29t28.5 -12h108q16 0 27.5 12t11.5 29v429q0 17 -11.5 29t-27.5 12zM943 464q-26 44 -80 46q-7 1 -201 1q17 51 17 131q0 42 -9 83h-1q-8 36 -35.5 59.5t-63.5 23.5q-41 0 -67 -31.5
t-26 -76.5v-9q-3 -82 -59 -141.5t-134 -68.5l-1 -513h10h1v0h499v0q22 0 47 16q24 17 36 43q2 3 41.5 180.5t40.5 191.5q2 35 -15 65z" />
    <glyph glyph-name="fenxiang" unicode="&#xe719;" 
d="M759 236q-45 0 -82.5 -22t-59.5 -59l-215 148q30 43 30 95q0 49 -27 91l209 135q22 -38 60.5 -61t84.5 -23q68 0 116.5 48.5t48.5 116.5t-48.5 116.5t-117 48.5t-117 -48.5t-48.5 -116.5q0 -15 3 -30l-227 -147q-45 36 -102 36q-68 0 -116.5 -48.5t-48.5 -117t48.5 -117
t116.5 -48.5q54 0 98 32l232 -159q-4 -18 -4 -35q0 -69 48.5 -117.5t117 -48.5t117 48.5t48.5 117t-48.5 117t-116.5 48.5zM758.5 818q46.5 0 80 -33t33.5 -80t-33.5 -80t-80 -33t-79.5 33t-33 80t33 80t79.5 33zM267 285q-47 0 -80 33t-33 80t33 80t80 33t80 -33t33 -80
t-33 -80t-80 -33zM758.5 -43q-46.5 0 -79.5 33.5t-33 80t33 80t79.5 33.5t80 -33.5t33.5 -80t-33.5 -80t-80 -33.5z" />
    <glyph glyph-name="wuliu1" unicode="&#xe633;" 
d="M922 125h-36q-7 49 -44 81.5t-86.5 32.5t-86.5 -32.5t-44 -81.5h-187q-7 49 -44 81.5t-86.5 32.5t-86.5 -32.5t-44 -81.5h-74q-15 0 -26 11t-11 26v556q0 16 11 27t26 11h522q16 0 26.5 -11t10.5 -27v-111h130q13 0 24 -6t15 -11t17 -20l83 -147q28 -40 28 -75v-186
q0 -15 -10.5 -26t-26.5 -11zM883 379l-78 145q-9 9 -15 9h-90v-185h197q0 10 -14 31zM307.5 199q38.5 0 65.5 -27t27 -65.5t-27 -65.5t-65.5 -27t-66 27t-27.5 65.5t27.5 65.5t66 27zM755.5 199q38.5 0 65.5 -27t27 -65.5t-27 -65.5t-65.5 -27t-66 27t-27.5 65.5t27.5 65.5
t66 27z" />
    <glyph glyph-name="jianpan" unicode="&#xe64a;" 
d="M512 -61q-91 0 -173.5 35t-142 94.5t-94.5 142t-35 173.5t35 173.5t94.5 142t142 94.5t173.5 35t173.5 -35t142 -94.5t94.5 -142t35 -173.5t-35.5 -173.5t-95 -142t-142 -94.5t-172.5 -35zM512 791q-110 0 -204 -54.5t-148.5 -148.5t-54.5 -204t54.5 -204t148.5 -148.5
t204 -54.5t204 54.5t148.5 148.5t54.5 204t-55 204t-148.5 148.5t-203.5 54.5zM714 315h-31q-7 0 -11.5 4.5t-4.5 10.5v63q0 7 4.5 11.5t11.5 4.5h31q7 0 11.5 -4.5t4.5 -11.5v-63q0 -6 -4.5 -10.5t-11.5 -4.5zM714 456h-31q-7 0 -11.5 4.5t-4.5 10.5v63q0 7 4.5 11.5
t11.5 4.5h31q7 0 11.5 -4.5t4.5 -11.5v-63q0 -6 -4.5 -10.5t-11.5 -4.5zM589 315h-32q-6 0 -10.5 4.5t-4.5 10.5v63q0 7 4.5 11.5t10.5 4.5h32q6 0 10.5 -4.5t4.5 -11.5v-63q0 -6 -4.5 -10.5t-10.5 -4.5zM589 456h-32q-6 0 -10.5 4.5t-4.5 10.5v63q0 7 4.5 11.5t10.5 4.5h32
q6 0 10.5 -4.5t4.5 -11.5v-63q0 -6 -4.5 -10.5t-10.5 -4.5zM698 236v-15q0 -7 -4.5 -11.5t-10.5 -4.5h-345q-7 0 -11.5 4.5t-4.5 11.5v15q0 7 4.5 11.5t11.5 4.5h345q6 0 10.5 -4.5t4.5 -11.5zM463 315h-31q-7 0 -11.5 4.5t-4.5 10.5v63q0 7 4.5 11.5t11.5 4.5h31
q7 0 11.5 -4.5t4.5 -11.5v-63q0 -6 -4.5 -10.5t-11.5 -4.5zM463 456h-31q-7 0 -11.5 4.5t-4.5 10.5v63q0 7 4.5 11.5t11.5 4.5h31q7 0 11.5 -4.5t4.5 -11.5v-63q0 -6 -4.5 -10.5t-11.5 -4.5zM338 315h-32q-6 0 -10.5 4.5t-4.5 10.5v63q0 7 4.5 11.5t10.5 4.5h32
q6 0 10.5 -4.5t4.5 -11.5v-63q0 -6 -4.5 -10.5t-10.5 -4.5zM338 456h-32q-6 0 -10.5 4.5t-4.5 10.5v63q0 7 4.5 11.5t10.5 4.5h32q6 0 10.5 -4.5t4.5 -11.5v-63q0 -6 -4.5 -10.5t-10.5 -4.5z" />
    <glyph glyph-name="emot" unicode="&#xe61f;" 
d="M512 -128q-139 0 -257 68.5t-186.5 186.5t-68.5 257t68.5 257t186.5 186.5t257 68.5t257 -68.5t186.5 -186.5t68.5 -257t-69 -257t-187 -186.5t-256 -68.5zM512 851q-95 0 -181.5 -37t-149 -99.5t-99.5 -149t-37 -181.5t37 -181.5t99.5 -149t149 -99.5t181.5 -37
t181.5 37t149 99.5t99.5 149t37 181.5t-37 181.5t-100 149t-149.5 99.5t-180.5 37zM801 342q0 -121 -84.5 -205.5t-204.5 -84.5t-204.5 84.5t-84.5 205.5h578zM617 546.5q0 -23.5 17 -40.5t40.5 -17t40.5 17t17 40.5t-17 40.5t-40.5 17t-40.5 -17t-17 -40.5zM289 547
q0 -24 17 -41t41 -17t41 17t17 41v0q0 23 -17 40t-41 17t-41 -17t-17 -40v0z" />
    <glyph glyph-name="caogaoxiang" unicode="&#xe6e0;" 
d="M819 328v203l-182 184h-325q-28 0 -47 -19.5t-19 -46.5v-321h-101v-301q0 -24 17 -41t41 -17h662q25 0 41.5 17t16.5 41v301h-104zM761 538h-87q-14 0 -23 9.5t-9 22.5v87zM278 647q0 14 10 23t23 9h295v-111q0 -28 19.5 -47t46.5 -19h113v-176h-118v-22q0 -57 -40 -97
t-96 -40q-23 0 -41 7q-42 13 -69 49t-27 82v21h-118v321h2zM891 27q0 -10 -7 -17t-17 -7h-662q-10 0 -17 7t-7 17v267h183q5 -67 53.5 -112t115 -45t116 45.5t52.5 111.5h190v-267z" />
    <glyph glyph-name="zhaopian" unicode="&#xe6f6;" 
d="M905 752h-783q-22 0 -37 -14.5t-15 -37.5v-574q0 -22 15 -37t37 -15h783q21 0 36.5 15t15.5 37v574q0 22 -15.5 37t-36.5 15zM922 226q0 -5 -3 -7l-162 161q-2 2 -5.5 5t-14.5 7.5t-22 3.5t-26.5 -11.5t-28.5 -32.5q-34 -58 -64.5 -63.5t-64.5 36.5l-194 163
q-2 3 -5.5 6.5t-14 10.5t-21.5 9.5t-26.5 -3.5t-30.5 -23l-131 -127v309q0 17 14 29t33 12h717q20 0 35 -12t15 -29v-444z" />
    <glyph glyph-name="add" unicode="&#xe62e;" 
d="M512 896q-139 0 -257 -68.5t-186.5 -186.5t-68.5 -257t68.5 -257t186.5 -186.5t257 -68.5t257 68.5t186.5 186.5t68.5 257t-68.5 257t-186.5 186.5t-257 68.5zM512 -83q-95 0 -181.5 37t-149 99.5t-99.5 149t-37 181.5t37 181.5t99.5 149t149 99.5t181.5 37t181.5 -37
t149 -99.5t99.5 -149t37 -181.5t-37 -181.5t-99.5 -149t-149 -99.5t-181.5 -37v0zM746 406h-212v212v0q0 9 -6.5 15.5t-15.5 6.5t-15.5 -6.5t-6.5 -15.5v0v-212h-212q-9 0 -15.5 -6.5t-6.5 -15.5t6.5 -15.5t15.5 -6.5h212v-212v0q0 -9 6.5 -15.5t15.5 -6.5t15.5 6.5
t6.5 15.5v0v212h212q9 0 15.5 6.5t6.5 15.5t-6.5 15.5t-15.5 6.5z" />
    <glyph glyph-name="fenlei1" unicode="&#xe68a;" 
d="M481 749q0 31 -22 53t-53 22h-247q-32 0 -54 -22t-22 -53v-247q0 -32 22 -54t54 -22h246q31 0 53.5 22t22.5 54v247v0zM441 495q0 -12 -8 -20.5t-20 -8.5h-261q-12 0 -20.5 8.5t-8.5 20.5v261q0 12 8.5 20.5t20.5 8.5h261q12 0 20.5 -8.5t8.5 -20.5v-261h-1zM481 297
q0 31 -22 53.5t-53 22.5h-247q-32 0 -54 -22.5t-22 -53.5v-246q0 -32 22 -54t54 -22h246q31 0 53.5 22t22.5 54v246v0zM441 43q0 -12 -8 -20.5t-20 -8.5h-261q-12 0 -20.5 8.5t-8.5 20.5v262q0 12 8.5 20t20.5 8h261q12 0 20.5 -8t8.5 -20v-262h-1zM932 749q0 31 -22 53
t-53 22h-247q-31 0 -53 -22t-22 -53v-247q0 -32 22 -54t53 -22h247q31 0 53 22t22 54v247zM893 495q0 -12 -8.5 -20.5t-20.5 -8.5h-261q-12 0 -20.5 8.5t-8.5 20.5v261q0 12 8.5 20.5t20.5 8.5h261q12 0 20.5 -8.5t8.5 -20.5v-261zM595 311q-55 -55 -55 -132t55 -131
q54 -54 131 -54t132 54q54 55 54 132t-54.5 131t-131.5 54t-131 -54zM829 76q-42 -43 -102.5 -43t-103.5 42.5t-43 103t43 103.5t103.5 43t103 -43t42.5 -103t-43 -103zM956 -51q-6 -5 -14 -5t-14 5l-95 95q-6 6 -6 14t6 14t14 6t14 -6l95 -95q6 -5 6 -13.5t-6 -14.5v0z" />
    <glyph glyph-name="yuyin" unicode="&#xe609;" horiz-adv-x="1025" 
d="M512 896q-104 0 -198.5 -40.5t-163.5 -109.5t-109.5 -163.5t-40.5 -198.5t40.5 -198.5t109.5 -163.5t163.5 -109.5t198.5 -40.5t198.5 40.5t163.5 109.5t109.5 163.5t40.5 198.5t-40.5 198.5t-109.5 163.5t-163.5 109.5t-198.5 40.5zM512 -91q-96 0 -184 37.5t-152 101.5
t-101.5 152t-37.5 184t37.5 184t101.5 152t152 101.5t184 37.5t184 -37.5t152 -101.5t101.5 -152t37.5 -184t-37.5 -184t-101.5 -152t-152 -101.5t-184 -37.5zM408 477l-92 -93l94 -93q37 38 36.5 93t-38.5 93zM501 569l-46 -46q58 -58 58 -139t-58 -139l46 -46
q77 77 77 185t-77 185zM592 662l-45 -46q47 -47 71.5 -108t24.5 -123t-24.5 -123t-71.5 -108l45 -46q76 75 103 175.5t0 201.5t-103 177z" />
    <glyph glyph-name="dingbu" unicode="&#xe60b;" 
d="M796 372l-259 259q-9 9 -23 9l-1 0.5t-2 0.5q-6 0 -13 -3q-6 -2 -11 -7l-259 -259q-10 -10 -10 -23t9.5 -22.5t22.5 -9.5t23 9l206 207v-564q0 -13 9.5 -22.5t22.5 -9.5t22.5 9.5t9.5 22.5v565l208 -208q9 -9 22.5 -9t23 9.5t9.5 22.5t-10 23zM864 704h-704
q-13 0 -22.5 9.5t-9.5 22.5t9.5 22.5t22.5 9.5h704q13 0 22.5 -9.5t9.5 -22.5t-9.5 -22.5t-22.5 -9.5z" />
    <glyph glyph-name="liuliangchongzhi" unicode="&#xe62f;" 
d="M855 598q-9 78 -69 119q-13 9 -26 15.5t-24.5 10t-21 6t-19 3t-15 1t-12.5 0t-8 -0.5q-15 0 -30 -5.5t-18 -17.5q-3 -13 2 -20t19 -13q7 -3 29 -4.5t46 -8t41 -20.5q40 -35 47 -80q2 -9 12 -21t22 -11q20 0 25 23q2 10 0 24zM991 661q-16 103 -106 175q-83 65 -222 59
q-31 -1 -51.5 -10.5t-22.5 -22.5q-2 -16 3.5 -24.5t25.5 -10.5q4 0 37 -0.5t59 -3t62 -14t61 -30.5q38 -31 59 -65.5t34 -79.5q5 -15 8.5 -23.5t11.5 -14.5t20 -5q31 5 21 70v0zM755 439q-9 65 -23 105q-24 71 -81 71q-31 0 -51.5 -13.5t-34.5 -48.5l-29 -96
q-5 -16 -15 -51.5t-13.5 -46t-11 -34t-14.5 -41.5t-17 -42q-18 58 -25 87t-18 90q-19 102 -42 150q-20 39 -70 39q-42 0 -67 -30q-28 -36 -47 -119q-5 -24 -13.5 -68.5t-12.5 -60.5q-3 -16 -50 -163q-29 -90 -29 -166q0 -23 16 -39q19 -21 52 -21t56.5 12.5t34.5 47.5
q3 21 9.5 53t7.5 42q33 124 37 138q7 -29 13 -50t8.5 -30.5t11.5 -36t14 -42.5l26 -78q11 -23 31.5 -36.5t42.5 -13.5t44 12t33 31q18 29 35 75l27 77q39 100 44 114q14 -77 34 -154l27 -102q26 -68 88 -68q25 0 54 22q9 8 15 21.5t6 24.5v1q0 17 -36 131q-41 135 -67 307v0
zM808 -22q-1 -1 -3 -2q-11 -9 -25 -9q-22 0 -33 12t-23 44l-19 76q-29 102 -60 277q-18 -48 -72 -186l-28 -69q-28 -79 -36 -91q-12 -19 -16 -25t-14 -11t-27 -5q-18 0 -28 10t-22 34l-15 46q-43 134 -80 289q-11 -39 -76 -284q-3 -13 -6.5 -29.5t-6.5 -32.5
q-6 -21 -15.5 -32.5t-16 -13t-17.5 -1.5q-14 0 -19.5 3t-14.5 12q-9 10 -9 38q0 29 6 55.5t22 77.5q44 137 47 152q5 22 14 62.5t13 59.5q21 93 37 113q13 16 21.5 21.5t24.5 5.5q13 0 21 -4.5t12 -11t11 -20.5q17 -34 37 -142q16 -90 68 -257q77 186 108 293l24 90
q7 18 11 26t10.5 17t14.5 12t20 3q21 0 32.5 -15t24.5 -52q9 -26 20 -98q24 -168 62 -288q6 -22 12.5 -41.5t10 -29.5t6 -18t3.5 -11.5t1 -5.5v-6v-6.5t-0.5 -5.5t-1 -6t-1 -5.5t-2 -5.5t-3.5 -4.5t-4 -4.5z" />
    <glyph glyph-name="tongzhi" unicode="&#xe650;" 
d="M542 773q-11 5 -21 -3l-249 -209h-198q-8 0 -13.5 -6t-5.5 -14v-329q0 -8 5.5 -13.5t13.5 -5.5h198l249 -210q6 -4 13 -4q4 0 8 2q11 5 11 17v0v758q0 12 -11 17zM678 152q-9 0 -15 7q-5 6 -4.5 13.5t6.5 13.5q41 36 63 86t22 105q0 57 -23.5 108t-67.5 88q-6 5 -6.5 13
t4.5 14t13 6.5t14 -4.5q50 -42 77.5 -101t27.5 -124q0 -63 -26 -120.5t-73 -99.5q-5 -5 -12 -5zM783 62q-11 0 -16 9q-4 7 -2 14.5t9 12.5q73 43 115.5 118t42.5 161t-43 161t-117 119q-7 4 -9 11.5t2 14.5t12 9t15 -2q83 -49 131 -133t48 -180t-48 -180t-130 -132
q-4 -3 -10 -3z" />
    <glyph glyph-name="shipin2" unicode="&#xe691;" 
d="M505 414q-24 15 -86.5 53t-87.5 52q-26 15 -38.5 11t-14.5 -15l-2 -12v-236v-5.5t3 -10.5t7.5 -10.5t15 -3t24.5 9.5q120 73 179 109q17 10 24.5 18t3.5 15.5t-9.5 12t-18.5 12.5v0zM986 646q-13 8 -27 0l-212 -121v73q0 42 -30 71.5t-72 29.5h-518q-42 0 -72 -29.5
t-30 -71.5v-428q0 -41 30 -71t72 -30h518q42 0 72 30t30 71v73l212 -121q14 -7 27 0.5t13 22.5v479q0 15 -13 22v0zM946 190l-212 122q-13 7 -26.5 -0.5t-13.5 -22.5v-119q0 -20 -14 -34t-34 -14h-518q-21 0 -35 14t-14 34v428q0 20 14 34t35 14h518q20 0 34 -14t14 -34
v-119q0 -16 13.5 -23.5t26.5 0.5l212 121v-387v0zM645 69h-518q-42 0 -72 30t-30 71v428q0 42 30 71.5t72 29.5h518q42 0 72 -29.5t30 -71.5v-73l212 121q14 8 27 0.5t13 -22.5v-480q0 -15 -13 -22.5t-27 0.5l-212 121v-73q0 -42 -30 -71.5t-72 -29.5v0z" />
    <glyph glyph-name="shang" unicode="&#xe616;" 
d="M973 384q0 94 -36.5 179t-98.5 147t-147 98.5t-179 36.5t-179 -36.5t-147 -98.5t-98.5 -147t-36.5 -179t36.5 -179t98.5 -147t147 -98.5t179 -36.5t179 36.5t147 98.5t98.5 147t36.5 179zM992 384q0 -130 -64.5 -240.5t-175 -175t-240.5 -64.5t-240.5 64.5t-175 175
t-64.5 240.5t64.5 240.5t175 175t240.5 64.5t240.5 -64.5t175 -175t64.5 -240.5zM399 470h226v-79h-226v79zM601 410v41h-178v-41h178zM500 588h25v-58h61q16 23 29 53l24 -9q-12 -26 -26 -45h88v-87h-26v66h-327v-69h-25v91h89q-12 24 -28 44l24 9q15 -21 30 -53h62v58v0z
M651 358v-119h-24v97h-230v-102h-24v124h278zM537 240q89 -23 166 -57l-14 -22q-84 39 -165 60zM504 315l25 -2q-10 -77 -43 -105q-36 -33 -160 -42l-10 22q114 6 149 36q34 26 39 91z" />
    <glyph glyph-name="xiangji" unicode="&#xe6db;" 
d="M958 1h-892q-25 0 -43 17.5t-18 43.5v527q0 25 18 42.5t43 17.5h182q21 0 39 19.5t29.5 42t26 41.5t27.5 19h263q20 0 39.5 -19t32.5 -41.5t32 -42t38 -19.5h183q25 0 43 -17.5t18 -42.5v-527q0 -26 -18 -43.5t-43 -17.5v0zM512 589q-101 0 -172.5 -71.5t-71.5 -172
t71.5 -172t172.5 -71.5t172 71.5t71 172t-71 172t-172 71.5zM805.5 589q-12.5 0 -21.5 -9t-9 -21.5t9 -21.5t21.5 -9t21.5 9t9 21.5t-9 21.5t-21.5 9zM511.5 163q-75.5 0 -129 53.5t-53.5 129t53.5 129t129 53.5t129 -53.5t53.5 -129t-53.5 -129t-129 -53.5zM106 710
q0 9 6 15t15 6h60q9 0 15 -6t6 -15v-20h-102v20z" />
    <glyph glyph-name="weizhi1" unicode="&#xe8dc;" 
d="M896 513q-3 -97 -48 -203q-45 -105 -134 -228q-59 -80 -147 -181q-25 -28 -56 -27q-27 2 -50 28q-34 39 -65 76q-101 121 -161 221q-67 112 -91 209q-43 172 47 309q98 151 277 173q98 12 188 -23.5t151 -110t80 -171.5q1 -3 9 -72zM682 513q0 69 -50 119t-120.5 50
t-121 -49t-50.5 -119q-1 -70 49 -120t121 -50q71 -1 121 49t51 120z" />
    <glyph glyph-name="guanfangguwen" unicode="&#xe618;" 
d="M637 394q54 31 85.5 85.5t31.5 118.5q0 99 -69 168t-165 69q-97 0 -165.5 -69t-68.5 -168q0 -64 31.5 -118.5t85.5 -85.5q-148 -40 -243.5 -164.5t-95.5 -282.5q0 -9 7 -16.5t17 -7.5t17 7.5t7 16.5q0 113 54.5 208t148.5 150t205 55t205 -55t148.5 -150t54.5 -208
q0 -9 7 -16.5t17 -7.5t17 7.5t7 16.5q0 158 -95.5 282.5t-243.5 164.5zM334 598q0 78 54.5 133.5t131.5 55.5t131.5 -55.5t54.5 -133.5t-54.5 -133t-131.5 -55t-131.5 55t-54.5 133zM550 278q-2 10 -10.5 15t-17.5 1q-10 -2 -15 -11t-1 -17l57 -205q-17 -24 -33 -40
q-9 7 -36 40l21 97q3 10 -2.5 18.5t-16.5 10.5q-10 3 -18 -2.5t-11 -16.5l-22 -107q-2 -9 3 -19q50 -72 80 -72t80 72q6 7 3 20z" />
    <glyph glyph-name="baozhang" unicode="&#xe65d;" 
d="M887 771q23 -8 36.5 -28t13.5 -45v-265q0 -114 -48.5 -217t-134.5 -171l-200 -158q-18 -15 -42 -15v0q-23 0 -42 15l-200 158q-86 68 -134.5 171t-48.5 217v265q0 25 13.5 45t36.5 28l346 120q14 5 29 5t29 -5l347 -120h-1zM912 436v279q0 20 -18 26l-367 127q-7 3 -15 3
t-15 -3l-367 -127q-18 -6 -18 -26v-279q0 -108 46 -205.5t128 -161.5l211 -167q6 -5 14.5 -5t15.5 5l211 167q82 64 127.5 161.5t45.5 205.5h1v0zM500 222h-100v0q-5 0 -9 -4t-4 -9t4 -8.5t9 -3.5h100v-75q0 -5 3.5 -9t8.5 -4t8.5 4t3.5 9v75h100q5 0 9 3.5t4 8.5t-4 9t-9 4
v0h-100v75q0 5 -3.5 8.5t-8.5 3.5t-8.5 -3.5t-3.5 -8.5v-75zM401 473q1 10 12 10q5 0 8.5 -3.5t3.5 -8.5v-3v-4q0 -6 3 -10q12 -19 35 -32t48.5 -13t48.5 12.5t36 32.5q3 4 3 10v0v0q0 6 4 9.5t9 3.5t8.5 -3.5t3.5 -8.5q1 -14 -7 -26q-16 -24 -44.5 -39.5t-61 -15.5
t-60.5 16t-44 40q-7 11 -7 24q0 5 1 9zM325 509v0q-31 0 -53 22t-22 53t22 53t53 22v0q31 0 53 -22t22 -53t-22 -53t-53 -22zM324.5 534q20.5 0 35.5 14.5t15 35t-15 35.5t-35.5 15t-35 -15t-14.5 -35.5t14.5 -35t35 -14.5zM699 509v0q-31 0 -53 22t-22 53t22 53t53 22v0
q31 0 53 -22t22 -53t-22 -53t-53 -22zM699.5 534q20.5 0 35 14.5t14.5 35t-14.5 35.5t-35 15t-35.5 -15t-15 -35.5t15 -35t35.5 -14.5z" />
    <glyph glyph-name="dianhua1" unicode="&#xe677;" 
d="M753 -128q-80 0 -211 81q-125 77 -244 193v0l-24 24q-116 119 -193 244q-81 131 -81 211q0 78 72 175q14 18 30 36t45 39t52 21q30 0 72 -44q31 -32 67 -83q34 -49 57 -92q27 -51 27 -76q0 -33 -34 -56q-15 -10 -49 -25q-30 -13 -37 -19q6 -24 42 -77q43 -63 93 -115
q52 -50 115 -93q53 -36 77 -42q6 7 19 37q15 34 25 49q23 34 56 34q25 0 76 -27q43 -23 92 -57q51 -36 83 -67q44 -42 44 -72q0 -23 -21 -52t-39 -45t-36 -30q-97 -72 -175 -72zM341 189z" />
    <glyph glyph-name="pengyouquan" unicode="&#xe692;" 
d="M513 795q-23 0 -47 -3q-54 -6 -106 -27q276 -273 284 -283v291q-12 4 -25 8q-53 14 -106 14zM801 676q-16 16 -34 31q-44 35 -95 56q2 -389 0 -401l207 206q-6 12 -13 24q-27 47 -65 84zM892 536q-274 -276 -284 -284h292q4 12 8 25q14 53 14 106q0 23 -3 47
q-6 55 -27 106zM486 222l207 -207q11 6 23 13q47 27 85 65q15 15 30 34q35 44 56 95q1 -1 -100.5 -1h-190.5t-110 1zM380 286v-291q13 -5 25 -8q53 -14 106 -14q23 0 47 3q55 6 106 27l-15 15t-39.5 39t-54.5 53.5t-60 59.5t-55 55.5t-41.5 42zM351 408l-206 -206
q5 -11 12 -23q27 -47 65 -85q16 -16 35 -31q44 -35 94 -56v101t-0.5 190.5t0.5 109.5zM116 490q-14 -52 -14 -105q0 -23 3 -47q6 -55 27 -106q274 276 284 284h-292q-4 -12 -8 -26zM306 739q-47 -27 -85 -65q-15 -16 -30 -35q-35 -43 -57 -94h402l-207 206q-12 -6 -23 -12z
" />
    <glyph glyph-name="take_phone" unicode="&#xe689;" 
d="M512 472.5q-61 -0.5 -104 -43.5t-43 -104t43 -104t104 -43t104 43t43 104t-43 104.5t-104 43zM862 617h-148l-19 48q-9 20 -31 20h-255q-20 0 -29 -18l-25 -50h-193q-41 0 -70.5 -29.5t-29.5 -71.5v-374q0 -42 29.5 -72t70.5 -30h700q41 0 70.5 30t29.5 72v374
q0 42 -29.5 71.5t-70.5 29.5zM512 145q-75 0 -127.5 53t-52.5 127.5t52.5 127t127.5 52.5t127.5 -52.5t52.5 -127t-52.5 -127.5t-127.5 -53zM707 475q-12 0 -21 9t-9 21.5t9 21t21 8.5t21 -8.5t9 -21t-9 -21.5t-21 -9zM182 670h105q6 0 10.5 4.5t4.5 10.5v15q0 7 -4.5 11
t-10.5 4h-105q-6 0 -10.5 -4t-4.5 -11v-15q0 -6 4.5 -10.5t10.5 -4.5z" />
    <glyph glyph-name="youjian" unicode="&#xe63f;" 
d="M962 628v10q-2 10 -6 14q-3 5 -10.5 7t-13.5 2l-6 -1h-826q-24 3 -31 -8q-4 -4 -5 -14q-1 -5 -1 -9v-1v-2v-2v-310v0v-213q-1 -25 6 -31q6 -5 13.5 -7t11.5 -1h4h829q16 -3 29 8q3 3 4.5 10.5t1.5 14.5v6v213v0v310v4zM890 623l-348 -361q-12 -12 -29.5 -12t-29.5 12
l-347 361h754zM99 608l234 -243v0l-234 -242v485zM588 100h-460l230 239l99 -103q23 -24 56 -24v0v0q32 0 55 24l99 103l230 -239h-309zM926 123l-233 242v0l233 243v-485z" />
    <glyph glyph-name="xiaosanjiao" unicode="&#xe634;" 
d="M512 307l-154 154h308z" />
    <glyph glyph-name="eye-close" unicode="&#xe6ee;" 
d="M959 405l-21 -25l-83 81q-54 -72 -134 -114l39 -88l-28 -15l-40 89q-80 -35 -167 -38v-102h-26v102q-105 -3 -193 40l-41 -91l-28 15l40 91q-66 38 -119 101l-73 -71l-21 25l74 71q-18 24 -32.5 49.5t-20.5 37.5l-5 13h52q28 -49 63 -88t68 -62.5t70 -40.5t63.5 -24
t53 -11t35.5 -4h14v0q38 -1 75 5.5t67.5 19.5t58.5 30t50 36.5t41 39t32.5 37.5t23 32t14 22l4.5 8h52q-18 -47 -44 -88z" />
    <glyph glyph-name="jingtouqiehuan" unicode="&#xe625;" 
d="M882 49h-740v0q-16 0 -27.5 11.5t-12.5 27.5v500q2 17 15.5 29t30.5 13h152q1 3 4 9t11 21.5t15 27.5t15.5 21.5t14.5 9.5h302q10 0 26 -22.5t26 -44.5l10 -22l158 -3v0q16 0 27.5 -11.5t11.5 -27.5v-500q0 -16 -11.5 -27.5t-27.5 -11.5v0zM876 555v3q0 11 -8 19t-19 8
h-3h-152q-7 13 -18 41t-19.5 38t-23.5 10h-242q-14 0 -23 -7.5t-13 -16.5t-11.5 -30.5t-13.5 -34.5h-152h-3q-11 0 -19 -8t-8 -19v-3v-432v0q0 -12 8.5 -20.5t21.5 -8.5v0h668v0q12 0 21 8.5t9 20.5v432zM622 347h37q0 21 -9.5 47t-22.5 42h-1q-22 26 -53 39l-1 1
q-5 2 -11 4h-1t-2 1q-2 0 -9 2q-1 0 -2.5 0.5l-1.5 0.5l-10 2h-4q-6 1 -13 1h-1q-18 0 -42 -7.5t-39 -17.5q-6 -4 -13 -4q-11 0 -18 9q-4 6 -4 13q0 11 10 18q19 13 50.5 23t55.5 10v0v0q1 0 2 -0.5l1 -0.5h15q1 0 3 -0.5t2.5 -0.5t4 -0.5t5.5 -0.5l1 -0.5t2 -0.5t4 -1h2
q7 -2 12 -3q1 -1 3 -1.5l2 -0.5q8 -2 13 -5h1t1 -1q17 -7 37.5 -22t32.5 -29l0.5 -0.5l0.5 -0.5q5 -7 8 -11l1 -1q13 -19 23 -49.5t10 -54.5h37l-60 -88zM376 347q0 -20 9 -45.5t22 -40.5q0 -1 0.5 -1.5t1.5 -0.5l8 -10v0q15 -14 33 -24v0q4 -2 11 -5l1 -0.5l1 -0.5
q4 -2 10 -4q3 -1 4 -1q3 -1 8 -2q4 -1 5 -1q3 -1 9 -2h2.5h2.5q6 -1 12 -1h2q18 0 41.5 7.5t38.5 17.5q6 4 13 4q12 0 19 -9q4 -6 4 -13q0 -11 -10 -18q-20 -13 -51 -23t-55 -10v0q-9 0 -19 1q-1 0 -2 0.5t-2 0.5q-8 1 -10 1q-1 0 -2 0.5l-1 0.5q-1 0 -7 1.5t-11 2.5
q-1 0 -6 2l-12 4q-1 0 -2 0.5t-1 1.5l-14 6l-1 1v0q-23 12 -42 31l-1 1l-11 11q0 1 -1 2t-1 2q-6 7 -7 8q0 1 -0.5 1t-0.5 1q-14 19 -23.5 49.5t-9.5 53.5h-37l59 88l60 -88h-37v0z" />
    <glyph glyph-name="huangguan" unicode="&#xe65c;" horiz-adv-x="1415" 
d="M120 651v-1q0 -25 -17.5 -42.5t-42.5 -17.5t-42.5 17.5t-17.5 42.5t17.5 42.5t42.5 17.5t42.5 -17.5t17.5 -42.5v1zM770 836q0 -25 -17.5 -42.5t-42 -17.5t-42 17.5t-17.5 42.5t17.5 42.5t42 17.5t42 -17.5t17.5 -42.5zM1415 651v-1q0 -25 -17.5 -42.5t-42 -17.5
t-42.5 17.5t-18 42.5t17.5 42.5t42.5 17.5v0q25 0 42.5 -17.5t17.5 -41.5zM120 574l83 -533h987l105 533l-296 -189l-289 349l-293 -333zM1194 -87q0 -17 -12 -29t-29 -12h-909v0q-17 0 -29 12t-12 29t12 29t29 12h909q17 0 29 -12t12 -29v0z" />
    <glyph glyph-name="shipin" unicode="&#xe68d;" 
d="M962 575l-259 259q-2 2 -4 2h-555q-34 0 -59 -25t-25 -59v-736q0 -34 25 -59t59 -25h736q34 0 59 25t25 59v555q0 2 -2 4zM225 52q0 -2 -1.5 -3.5t-3.5 -1.5h-74q-5 0 -5 5v74q0 6 5 6h74q5 0 5 -6v-74zM225 203q0 -5 -5 -5h-74q-5 0 -5 5v75q0 5 5 5h74q5 0 5 -5v-75z
M225 355q0 -5 -5 -5h-74q-5 0 -5 5v74q0 5 5 5h74q5 0 5 -5v-74zM225 506q0 -5 -5 -5h-74q-5 0 -5 5v75q0 5 5 5h74q5 0 5 -5v-75zM225 657q0 -5 -5 -5h-74q-5 0 -5 5v75q0 5 5 5h74q5 0 5 -5v-75zM653 314l-189 -110q-19 -11 -39 -11q-23 0 -40 17t-17 50v218q0 33 17 50
t40 17q20 0 39 -11l189 -110q37 -21 37 -55t-37 -55zM867 52q0 -5 -5 -5h-75q-5 0 -5 5v74q0 6 5 6h75q5 0 5 -6v-74zM867 203q0 -5 -5 -5h-75q-5 0 -5 5v75q0 5 5 5h75q5 0 5 -5v-75zM867 355q0 -5 -5 -5h-75q-5 0 -5 5v74q0 5 5 5h75q5 0 5 -5v-74zM737 556q-21 0 -36 15
t-15 36v166l217 -217h-166z" />
    <glyph glyph-name="guanguang" unicode="&#xe645;" horiz-adv-x="1340" 
d="M979 -199h-216v393q0 15 -10.5 25.5t-25.5 10.5h-111q-15 0 -25.5 -10.5t-10.5 -25.5v-393h-219q-53 0 -95 61q-36 53 -36 105v323h-48q-64 0 -86 55q-11 26 -7.5 54.5t18.5 43.5l476 493q31 31 91.5 31t91.5 -31v0l474 -493q15 -15 17.5 -45t-8.5 -56q-21 -52 -76 -52
h-62v-336q0 -53 -33 -99q-40 -54 -99 -54zM803 -159h176q40 0 66 37t26 76v376h102q29 0 40 27q6 19 5 36t-6 22v1l-475 492q-19 19 -63 19t-62 -19l-476 -493q-7 -6 -8.5 -21.5t4.5 -32.5q13 -31 50 -31h88v-363q0 -39 29 -82.5t62 -43.5h179v353q0 31 22.5 53.5t53.5 22.5
h111q31 0 53.5 -22.5t22.5 -53.5v-353zM751 914q-3 2 -9.5 5t-24.5 9t-36 8t-41.5 -3t-43.5 -19q-31 -23 -152.5 -150t-227 -242.5t-105.5 -116.5q-1 -4 -1.5 -11t1.5 -23.5t8 -28.5t23 -19.5t43 -3.5l72 -1v-351q1 -5 1.5 -13t6 -29t15 -38.5t30 -35.5t47.5 -25h200l12 416
h194l22 -45v-371l231 6q2 2 7 6t17 15.5t21.5 23t17 27t7.5 29.5v367l110 13q1 1 3.5 3t9 8.5t12 13t11.5 15.5t9 16.5t3 15.5t-5 14z" />
    <glyph glyph-name="shipin1" unicode="&#xe607;" 
d="M838 538l139 80q19 11 33 3.5t14 -26.5v-429q0 -21 -14 -27.5t-33 4.5l-139 80q-23 13 -34.5 25.5t-11.5 30.5v205q0 18 11 28.5t35 25.5zM838 538zM649 719h-551v0q-41 0 -69.5 -28.5t-28.5 -68.5v-479q0 -40 28.5 -68.5t69.5 -28.5v0h551v0q40 0 68.5 28.5t29.5 68.5
v479q-1 40 -29.5 68.5t-68.5 28.5v0zM185 420v0q-35 0 -60 25t-25 60.5t25 60.5t60 25t60 -25t25 -60.5t-25 -60.5t-60 -25z" />
    <glyph glyph-name="huafei-" unicode="&#xe630;" 
d="M674 746h-324q-36 0 -61.5 -25.5t-25.5 -61.5v-550q0 -36 25.5 -61.5t61.5 -25.5h325q36 0 61.5 25.5t25.5 61.5v550q-1 36 -26.5 61.5t-61.5 25.5zM300 659q0 21 14.5 35.5t34.5 14.5h325q20 0 34.5 -15t14.5 -35v-550q0 -21 -14.5 -35.5t-34.5 -14.5h-324
q-20 0 -34.5 15t-14.5 35v550h-1zM681 160h-332q-7 0 -12 4.5t-5 12t5 12t12 4.5h332q7 0 12 -4.5t5 -12t-5 -12t-12 -4.5zM493 111q0 -8 5.5 -13.5t13.5 -5.5t13.5 5.5t5.5 13.5t-5.5 14t-13.5 6t-13.5 -6t-5.5 -14zM668 618h-312q-7 0 -12 5t-5 12t5 12t12 5h312
q7 0 12 -5t5 -12t-5 -12t-12 -5zM611 446h-59l64 64q4 4 4 11t-4.5 11.5t-11.5 4.5t-11 -4l-81 -80l-81 81q-5 4 -11.5 4t-11 -4.5t-4.5 -11.5t4 -11l64 -64h-59q-7 0 -12 -5t-5 -12t5 -12t12 -5h82v-33h-82q-7 0 -12 -4.5t-5 -12t5 -12t12 -4.5h82v-50q0 -7 5 -12t12 -5
t12 5t5 12v51h82q7 0 12 5t5 12t-5 12t-12 5h-82v32h82q7 0 12 5t5 12q-1 6 -6 10.5t-11 4.5z" />
    <glyph glyph-name="wechatpay-scan" unicode="&#xe603;" horiz-adv-x="1025" 
d="M373 264q-7 -4 -16 -4q-19 0 -29 17l-3 5l-94 204q-1 3 -1 8q0 7 5 12t12 5q5 0 10 -3l110 -79q11 -8 28 -8q6 0 18 2l517 232q-71 84 -181 132.5t-237 48.5q-139 0 -257 -57t-186.5 -155.5t-68.5 -214.5q0 -95 47 -179t130 -143q15 -10 15 -28q0 -2 -1 -5.5t-1 -4.5
q-3 -12 -9 -34.5t-10 -36.5t-4 -15q-3 -9 -3 -13q0 -7 5 -12.5t12 -5.5q5 0 11 3l112 64q15 8 28 8q6 0 15 -3q84 -24 166 -24q139 0 257 57.5t186.5 156t68.5 213.5q0 108 -58 198l-591 -338z" />
    <glyph glyph-name="shaixuan" unicode="&#xe649;" 
d="M920 726q-12 28 -38 45t-58 17h-624q-32 0 -58 -17t-38 -45q-11 -26 -5.5 -53t26.5 -48l210 -213h1l36 -38q17 -17 17 -41v-166q0 -14 10 -24t23.5 -10t23.5 10t10 24v166q0 52 -36 88l-190 193h-1l-57 58q-13 14 -6 29q8 20 34 20h624q26 0 34 -20q6 -15 -7 -28
l-200 -208l-4 -6l-36 -38q-36 -36 -36 -89l-1 -320q0 -13 10 -23t23.5 -10t23.5 10t10 23v320q0 25 17 43l190 198l51 53q21 20 26.5 47t-5.5 53z" />
    <glyph glyph-name="saoyisao" unicode="&#xe944;" horiz-adv-x="1077" 
d="M1049 357h-1020q-12 0 -20.5 8t-8.5 19t8.5 19t20.5 8h1020q12 0 20.5 -8t8.5 -19t-8.5 -19t-20.5 -8zM1024 546q-11 0 -19 8t-8 19v242q0 12 -7.5 19.5t-19.5 7.5h-266q-12 0 -21 8t-9 19t9 19t21 8h266q36 0 58.5 -23t22.5 -58v-243q0 -10 -6.5 -16.5t-13.5 -8.5z
M374 842h-266q-12 0 -19.5 -7.5t-7.5 -19.5v-242q0 -11 -8 -19t-19 -8q-3 0 -7.5 1.5t-12 8t-7.5 16.5v243q0 35 22.5 58t58.5 23h266q12 0 21 -8t9 -19t-9 -19t-21 -8zM54 222q11 0 19 -8t8 -19v-242q0 -12 7.5 -19.5t19.5 -7.5h266q12 0 21 -8t9 -19t-9 -19t-21 -8h-266
q-36 0 -58.5 23t-22.5 58v243q0 10 7 16.5t12.5 8t7.5 1.5zM704 -74h266q12 0 19.5 7.5t7.5 19.5v242q0 11 8 19t19 8q3 0 7.5 -1.5t12 -8t7.5 -16.5v-243q0 -35 -22.5 -58t-58.5 -23h-266q-12 0 -21 8t-9 19t9 19t21 8z" />
    <glyph glyph-name="g" unicode="&#xe657;" horiz-adv-x="1072" 
d="M1051 439l-205 -201l47 -279q4 -22 -4.5 -41.5t-26.5 -31.5q-21 -14 -45 -14q-20 0 -37 9l-244 129l-243 -129q-18 -9 -38 -9q-24 0 -44 14q-18 12 -27 31.5t-5 41.5l48 279l-205 201q-9 9 -15.5 24t-6.5 28q0 12 4 23q7 20 23.5 33.5t38.5 16.5l279 41l121 248
q10 20 29 31.5t41.5 11.5t41.5 -11.5t28 -31.5l122 -248l279 -41q21 -3 38 -16.5t24 -33.5q3 -11 3 -23q0 -13 -6 -28t-15 -24zM834 -75q6 5 10 12l-8 -8q-11 -7 -24 -8q1 0 2.5 -0.5t2.5 -0.5q9 0 17 5zM239 -75q7 -5 16 -5q1 0 2.5 0.5l1.5 0.5q-12 1 -23 8q-4 4 -7 8
q3 -7 10 -12zM50 499q-1 -4 -1 -8v-4q1 6 2 10q2 7 8 14q-6 -5 -9 -12zM525 846q7 1 11.5 1t10.5 -1q-5 2 -11 2q-5 0 -11 -2zM1022 499q-2 7 -8 12q5 -7 8 -14q1 -4 1 -10q1 2 1 4q0 4 -2 8z" />
    <glyph glyph-name="tianjiarenyuan-copy" unicode="&#xe862;" 
d="M847 70q-19 32 -55 55q-43 27 -108 39h-0.5h-0.5q-31 4 -66 13q-59 15 -64 28q0 2 -1 4q-2 10 0 37q3 29 15 56t22.5 40t29.5 34q17 18 23 27q27 38 29 83v1q0 7 -2 13q-2 9 -11 18l-2 2q-1 1 -1 6q4 23 5 41q3 52 -4 88q-1 8 -4 18q-9 33 -28 57h-1v0q-3 3 -8 7.5
t-24 16t-42 20.5t-63 18t-86 12q-24 2 -66 0h-1q-12 -1 -19 -2q-20 -5 -23 -21q-2 -10 4 -23q1 -2 1 -3l-1 -1q-4 -7 -16 -16v-1q-5 -4 -12.5 -11.5t-19.5 -29t-13 -42.5q-11 -63 1 -126q0 -1 1 -2q1 -5 0 -7v0v0q-17 -15 -17 -32v-1q2 -45 29 -83q6 -8 23 -27
q19 -21 29.5 -34t22.5 -40t15 -56q2 -27 1 -37l-2 -4q0 -1 -3 -4t-18.5 -10t-41.5 -14q-33 -8 -67 -13v0h-1q-64 -11 -107 -38q-36 -23 -55 -55q-22 -36 -20 -71v-21q0 -7 5 -12t13 -5h807q7 0 12 5t5 12v20q3 35 -19 71zM831 2v-2v-4h-772v4v1q-1 27 16 54q16 25 44 43
q37 23 93 32q36 5 71 14q77 20 87 50q7 12 3 55q-3 34 -17 65.5t-26 46.5t-32 38q-15 16 -21 24q-20 28 -23 64v1l5 5l1 1q15 13 10 38v1.5v0.5q-11 59 -1 115v3q1 31 33 60q15 12 23 23q3 6 5 12q3 10 -2 22q4 1 7 1h1q39 2 62 0q94 -7 156 -36q30 -13 43 -27
q14 -17 21 -43q3 -8 3 -14l0.5 -0.5l0.5 -0.5q5 -32 3 -80q-1 -17 -4 -38q-3 -20 8 -33l4 -4t3 -4v-3q-3 -36 -23 -64q-5 -8 -20 -24q-21 -23 -32.5 -38t-26 -46.5t-17.5 -65.5q-4 -43 3 -55q11 -30 88 -50q35 -9 70 -14q57 -10 94 -33q29 -18 44 -42q17 -28 15 -53v0z
M986 565h-115v116q0 6 -4.5 10t-10.5 4t-10 -4t-4 -10v-116h-116q-6 0 -10 -4t-4 -10t4 -10.5t10 -4.5h116v-115q0 -6 4 -10.5t10 -4.5t10.5 4.5t4.5 10.5v115h115q6 0 10.5 4.5t4.5 10.5t-4.5 10t-10.5 4z" />
    <glyph glyph-name="zuixin" unicode="&#xe65a;" horiz-adv-x="1082" 
d="M12 926h626l442 -454v-626z" />
    <glyph glyph-name="zuixin-copy" unicode="&#xe863;" horiz-adv-x="1082" 
d="M37 950h625l442 -454v-626z" />
    <glyph glyph-name="zheng" unicode="&#xe65e;" horiz-adv-x="1072" 
d="M959 -64q3 5 3 12v1q0 9 -6 14h-419v439h386q2 1 2 2q3 6 3 14q0 10 -5 18l-386 -1v380h386q2 1 2 2q3 5 3 13q0 10 -5 18h-838q-8 -3 -10 -6q-8 -7 -3 -21l13 -6h419v-852h-299v659q-2 2 -3 2q-5 3 -12 3h-1q-10 0 -18 -6v-658h-133q-2 -1 -2 -2q-3 -5 -3 -13
q0 -9 5 -18h918q3 3 3 6v0z" />
    <glyph glyph-name="tuijian1" unicode="&#xe661;" horiz-adv-x="1102" 
d="M1039 415l-154 -192v-1l13 -216v-1v-1q-1 -30 -10 -51t-22.5 -30t-25.5 -12.5t-25 -3.5q-20 0 -43 7q-139 47 -239 82l-210 -79q-37 -13 -61 -13q-32 0 -50 20q-24 26 -18 83q1 40 11.5 114.5t11.5 114.5q-24 28 -79.5 90.5t-78.5 90.5q-4 4 -5 9q-32 46 -18 85
q14 37 70 53l242 69l121 183q33 48 79 48q44 0 80 -46v-1q134 -190 142 -201l218 -54l4 -2q58 -18 71 -58q12 -39 -24 -87zM1016 487q-5 16 -41 28l-226 57q-10 3 -15 11q-76 108 -146 206q-20 27 -40 27t-38 -27l-126 -190q-6 -9 -16 -11q-86 -24 -169 -48l-79 -22
q-33 -10 -38 -24q-6 -15 15 -47q72 -85 148 -174q6 -7 5 -16q-5 -171 -7 -252l-1 -2q-3 -36 6 -47q4 -4 14 -4q16 0 45 10l217 82q4 2 9 2q4 0 8 -2q81 -28 246 -85q15 -4 28 -4q6 0 10 1t10 5t9.5 15t4.5 29q-6 102 -13 214l-1 10v1q0 9 6 15l159 200q21 27 16 42z" />
    <glyph glyph-name="xianshigou" unicode="&#xe663;" horiz-adv-x="1519" 
d="M651.5 691q16.5 -17 28.5 -46t12 -52.5t-12 -52.5t-29 -46l-393 -393q-16 -16 -44.5 -27.5t-52.5 -11.5q-57 0 -98 40.5t-41 98.5q0 23 12 51.5t28 45.5l393 393q17 17 45.5 29t52.5 12t53 -12t45.5 -29zM1406 839q17 -17 29 -45.5t12 -52.5t-12 -52.5t-29 -45.5
l-688 -688q-17 -17 -45.5 -29t-52.5 -12q-57 0 -98 41t-41 98q0 24 12 53t29 46l688 687q16 17 45 29t53 12t52.5 -12t45.5 -29z" />
    <glyph glyph-name="biji" unicode="&#xe664;" 
d="M512 896q139 0 257 -68.5t186.5 -186.5t68.5 -257t-68.5 -257t-186.5 -186.5t-257 -68.5t-257 68.5t-186.5 186.5t-68.5 257t68.5 257t186.5 186.5t257 68.5zM737 677h-440q-19 -2 -29.5 -13.5t-10.5 -22.5l-1 -10v-495q2 -22 14 -33t24 -11h11h417q20 0 31.5 11t13.5 21
l1 10v518zM622 201h-256v37q-6 36 0 36h256q1 -1 8.5 0.5t17 -8t10.5 -28.5v-3v-7.5v-9.5v-9.5t-1 -6.5zM630 312h-244q-9 -1 -9 6v24q1 4 6 4h250l2 0.5t4 -2t2 -8.5v-20q0 -1 -0.5 -1.5t-3.5 -2t-7 -0.5zM733 600l-77 -104q-2 -3 -5 -5l-50 -38h-2.5t0.5 2l21 61q1 4 3 7
l77 103q1 2 2 2t2 -1l28 -22q1 -1 1 -3v-2zM767 648l-17 -23q-1 -1 -3 -1q-1 0 -2 1l-27 22q-2 1 -2 2q0 2 1 3l17 22q1 1 2 1h2l28 -22q1 -1 1 -3v-2z" />
    <glyph glyph-name="chazhangdan" unicode="&#xe665;" 
d="M884 230l-239 5q-6 -4 -14.5 -10.5t-23 -27t-14.5 -41.5l1 -216zM672 597h-365q-8 0 -12.5 0.5t-6.5 3t-2.5 3.5t-0.5 5.5v6.5q0 11 4.5 15t15.5 4h367q10 -1 14.5 -5t4.5 -14t-4 -14t-15 -5zM672 461h-367q-13 1 -16.5 5.5t-3.5 14.5q0 1 1 3q0 7 1 10t5.5 5t14.5 1h334
q33 2 41.5 -2t8.5 -17q0 -9 -5.5 -14.5t-13.5 -5.5zM617 -79v0h-42v212q0 53 31.5 84.5t84.5 31.5h174v521q0 32 -23 55t-55 23h-579q-31 0 -54 -23t-23 -55v-733q0 -32 23 -55t54 -23h232q11 0 15 -3.5t4 -15.5q0 -4 -0.5 -7t-1.5 -4.5t-4 -3t-4 -2.5t-5 -1.5t-5 -0.5h-5.5
h-5.5v0h-209q-53 0 -90 37t-37 90v711q0 53 37 90t90 37h558q52 0 89 -37t37 -90v-545zM689 210q-32 0 -52 -19.5t-20 -51.5l-3 -160l231 231h-156zM305 365h193q8 0 13.5 -5.5t5.5 -13.5t-5.5 -14t-13.5 -6h-193q-8 0 -14 6t-6 14t6 13.5t14 5.5z" />
    <glyph glyph-name="qiandao1" unicode="&#xe666;" horiz-adv-x="1143" 
d="M841 120l-135 158l41 37l99 -115l261 235l36 -43zM1024 658q0 28 -18.5 49.5t-45.5 21.5h-114v48h114q49 0 80.5 -34t31.5 -85v-191h-48v191zM745.5 624q-15.5 0 -26.5 11t-11 28v194q0 16 11 27.5t26.5 11.5t26.5 -11.5t11 -27.5v-194q0 -16 -11 -27.5t-26.5 -11.5z
M412 777h251v-48h-251v48zM318.5 624q-15.5 0 -26.5 11t-11 28v194q0 16 11 27.5t26.5 11.5t26.5 -11.5t11 -27.5v-194q0 -16 -11 -27.5t-26.5 -11.5zM46 658v-667q0 -27 21 -49t47 -22h823q28 0 57.5 22.5t29.5 48.5v191h48l-1 -191q0 -50 -36 -84.5t-86 -34.5h-830
q-49 0 -84 36t-35 87v664q0 51 32.5 84.5t81.5 33.5h115v-48h-115q-26 0 -47 -22t-21 -49zM250 444q25 0 42.5 -17.5t17.5 -42.5t-17.5 -42.5t-42.5 -17.5t-42 17.5t-17 42.5t17 42.5t42 17.5zM250 253q25 0 42.5 -17.5t17.5 -42t-17.5 -42t-42.5 -17.5t-42 17.5t-17 42
t17 42t42 17.5zM512 253q25 0 42.5 -17.5t17.5 -42t-17.5 -42t-42.5 -17.5t-42.5 17.5t-17.5 42t17.5 42t42.5 17.5zM512 444q25 0 42.5 -17.5t17.5 -42.5t-17.5 -42.5t-42.5 -17.5t-42.5 17.5t-17.5 42.5t17.5 42.5t42.5 17.5z" />
    <glyph glyph-name="chognhuafei" unicode="&#xe667;" 
d="M737 -128h-450q-34 0 -58 24t-24 58v860q0 34 24.5 58t57.5 24h450q33 0 57.5 -24t24.5 -58v-860q0 -34 -24.5 -58t-57.5 -24zM287 -89l450 2q12 0 16.5 0.5t11.5 2t10 6t3 11.5v164h-532v-143q0 -17 13 -31t28 -12zM737 855h-450q-16 0 -28.5 -12.5t-12.5 -28.5v-676
h532v676q0 16 -12.5 28.5t-28.5 12.5zM410 814h12v0h180v0h12v-41h-204v41zM614 466h-61l69 73q5 5 5 12t-5 12t-12 5t-12 -5l-86 -82l-86 83q-5 5 -12 5t-12 -5t-5 -12t5 -12l69 -74h-61h-3q-18 0 -18 -9q0 -12 21 -12h82v-41h-82q-8 0 -14.5 -4.5t-6.5 -11.5q0 -4 2.5 -5
t9 0t9.5 1h82l2 -64q0 -8 5 -13t13 -5t13 5t5 13l2 64h82q3 0 6.5 -0.5t5.5 -0.5t4.5 0.5t3.5 2t1 3.5q0 7 -6 11t-15 4h-82v41h82q21 0 21 13q-1 8 -21 8zM522 56q21 0 36 -15t15 -36t-15 -36t-36 -15t-36 15t-15 36t15 36t36 15z" />
    <glyph glyph-name="chongliuliang" unicode="&#xe668;" 
d="M669 432q-7 43 -16 69q-16 47 -54 47q-21 0 -34.5 -9t-23.5 -32l-19 -63q-30 -101 -47 -142q-17 54 -29 117q-12 67 -28 98q-13 27 -47 27q-28 0 -44 -21q-19 -23 -32 -78q-3 -16 -9 -45.5t-8 -39.5q-2 -11 -33 -108q-20 -59 -20 -109q0 -15 10 -26q13 -14 36 -14
q47 0 60 40q2 14 6.5 35t5.5 27q22 83 25 91q8 -35 31 -104l17 -52q7 -15 21 -24t28.5 -9t29 8t22.5 20q12 19 23 50l18 51q27 66 30 75q9 -51 23 -102l17 -67q18 -45 59 -45q17 0 36 15q14 12 14 30v0q0 12 -23 87q-28 90 -45 203v0zM704 127q-10 -7 -19 -7q-15 0 -22 8
t-15 29l-13 50q-19 68 -40 183q-12 -33 -48 -123l-18 -45q-20 -52 -25 -60q-8 -13 -10.5 -17t-9.5 -7t-18 -3q-12 0 -18.5 6.5t-14.5 22.5l-10 30q-29 88 -54 191q-7 -25 -51 -187q-1 -9 -3.5 -20t-4.5 -22q-4 -14 -10.5 -21t-11 -8t-11.5 -1q-13 0 -23 10q-5 6 -5 24
q0 30 18 88q30 91 32 101q3 14 9 41t8 39q14 61 26 75q8 10 13.5 14t16.5 4q8 0 13.5 -3.5t8.5 -7.5t7 -13q12 -23 25 -94q11 -59 45 -170q52 123 73 194l16 60q6 15 9.5 21.5t10.5 11.5t17 5q14 0 22 -10t16 -34q6 -18 13 -66q17 -110 42 -190q4 -14 8 -27t6.5 -19.5t4 -12
t2.5 -7.5t1 -4q0 -22 -8 -29zM824 532q-7 -1 -12.5 3t-8 9.5t-5.5 15.5q-17 60 -61 96q-16 12 -40 19.5t-41 9t-39 2t-25 1.5q-21 2 -19 22q2 9 15.5 15t33.5 7q92 4 146 -39q60 -47 70 -115v0q7 -43 -14 -46zM620 638h5.5h8t10 -0.5t13 -2t14 -4t15.5 -7t17 -9.5
q40 -27 46 -79q3 -29 -17 -31q-8 0 -14.5 7.5t-7.5 13.5q-5 30 -31 53q-15 13 -45.5 17t-30.5 5q-17 7 -14 22t31 15zM512 896q-139 0 -257 -68.5t-186.5 -186.5t-68.5 -257t68.5 -257t186.5 -186.5t257 -68.5t257 68.5t186.5 186.5t68.5 257t-68.5 257t-186.5 186.5
t-257 68.5zM512 -89q-96 0 -184 37.5t-151 100.5t-100.5 151t-37.5 184t37.5 184t100.5 151t151 100.5t184 37.5t184 -37.5t151 -100.5t100.5 -151t37.5 -184t-37.5 -184t-100.5 -151t-151 -100.5t-184 -37.5z" />
    <glyph glyph-name="shuangjiantou-copy" unicode="&#xe636;" 
d="M788 406l-276 275l51 51l327 -326l-327 -326l-51 51zM488 401l-276 275l51 51l327 -326l-327 -327l-51 51z" />
    <glyph glyph-name="guanguang-copy-copy" unicode="&#xe946;" horiz-adv-x="1340" 
d="M950 -201h-203v368q0 14 -9.5 24t-23.5 10h-105q-13 0 -23 -10t-10 -24v-368h-205q-50 0 -90 57q-33 50 -33 98v304h-46q-59 0 -80 51q-10 24 -7 50.5t18 41.5l446 462q28 28 85 28t86 -28v0l445 -462q13 -14 16 -42.5t-8 -52.5q-20 -49 -71 -49h-59v-315q0 -50 -31 -92
q-37 -51 -92 -51zM785 -163h165q37 0 61.5 34t24.5 71v353h96q26 0 37 25q6 18 5 34t-6 21v0l-445 462q-17 17 -58.5 17t-59.5 -17l-446 -462q-6 -6 -7.5 -20.5t4.5 -30.5q12 -29 46 -29h83v-341q0 -36 27 -76.5t59 -40.5h168v330q0 29 20.5 50t49.5 21h105q29 0 50 -21
t21 -50v-330zM736 842q-3 2 -9 5t-23 8.5t-33.5 7.5t-39 -2.5t-40.5 -18.5q-30 -21 -143.5 -140.5t-212.5 -227.5t-99 -109q-1 -4 -1.5 -10t1 -22t7.5 -27t22 -18t40 -3l68 -2v-329q0 -4 1 -11.5t6 -27.5t14 -36.5t28 -33t45 -23.5h187l11 390h182l20 -42v-348l217 6
q8 5 18.5 14.5t29 34.5t18.5 46v343l103 13q1 1 3.5 3t8.5 8t11 12t10.5 14.5t8.5 15.5t3 14.5t-4 13.5z" />
    <glyph glyph-name="kankan" unicode="&#xe669;" 
d="M919 -108q-34 0 -44 42l-20 67h77l13 -39q2 -11 15 -11h5v-59h-46zM866 58v14h-35q-25 0 -42 27l-5 7l-5 -42q-4 -51 -53 -51h-52l-11 62h24q16 0 17 16l10 66h-30v58h38l4 31h-38v62h47l5 30h76l-4 -30h131v-221q0 -12 11 -12h11v-62h-54q-45 1 -45 45zM866 246h-62
l-7 -46q4 -4 7 -8l33 -48q5 -10 15 -10h14v112zM635 217l29 9v-73l-29 -8v-85q-1 -17 -12 -31q-14 -16 -35 -16h-47l-10 62h10q9 1 14 5q3 5 3 12v31l-39 -11v73l39 11v56h-37v62h37v22h77v-22h36v-62h-36v-35zM544 -36l9 37h76l-20 -75q-10 -34 -46 -34h-36l-11 59h12
q13 0 16 13zM275 -45h11v-8h19q25 0 36 15l4 4l-41 57h82l2 -2l20 25h-112v49h186v-63l-51 -63l9 -11q7 -11 20 -11h34v-55h-55q-34 0 -55 20q-18 -20 -49 -20h-44l-5 26v-12h-11v-14h-76v14h-151v49h20v161h-20v47h447v-47h-220v-161zM199 116h-57v-26h57v26zM199 50h-57
v-26h57v26zM199 -16h-57v-29h57v29zM432 179h-367v151h412v-107q0 -45 -45 -44zM400 290h-259v-18h259v18zM400 238h-259v-20h248q11 0 11 12v8zM726 -38q3 -11 16 -11h3v-59h-44q-34 0 -44 42l-18 67h76zM835 -38q2 -11 15 -11h7v-59h-48q-34 0 -44 42l-20 67h77zM963 688
h-287l-16 -23h288v-184q0 -45 -45 -45h-356v159h-20l-11 58h25q15 0 21 10l17 25h-62v48h95l14 20h-101v44h131l16 22h-143l-7 44h339q8 0 11 4t3 10v5h77v-23q0 -14 -10 -26q-12 -14 -30 -14h-145l-16 -22h208v-44h-237l-14 -20h255v-48zM624 482h236q12 0 12 11v9h-248
v-20zM624 540h248v21h-248v-21zM630 620l-1 -1l-5 -7v-13h248v21h-242zM191 665h288v-184q-1 -45 -45 -45h-356v159h-20l-11 58h24q15 0 21 10l18 25h-62v48h94l15 20h-102v44h132l15 22h-142l-7 44h339q8 0 11 4t3 10v5h77v-23q-1 -14 -11 -26q-11 -14 -29 -14h-146
l-15 -22h208v-44h-238l-14 -20h256v-48h-287zM154 482h237q11 0 11 11v9h-248v-20zM154 540h248v21h-248v-21zM160 620v-1l-6 -7v-13h248v21h-242z" />
    <glyph glyph-name="dizhi" unicode="&#xe66a;" 
d="M512 896q139 0 257 -68.5t186.5 -186.5t68.5 -257t-68.5 -257t-186.5 -186.5t-257 -68.5t-257 68.5t-186.5 186.5t-68.5 257t68.5 257t186.5 186.5t257 68.5zM512 750q-121 0 -207 -84.5t-86 -203.5q0 -43 28.5 -103.5t64 -111.5t81.5 -107t66 -78t34 -36q8 -8 19 -8v0h1
q11 0 19 9l91 102q182 219 182 333q0 119 -86 203.5t-207 84.5zM512 332q-55 0 -94 38t-39 92t39 92.5t94 38.5t94 -38.5t39 -92.5t-39 -92t-94 -38z" />
    <glyph glyph-name="daishouhuo" unicode="&#xe66b;" 
d="M951 677h-195q5 6 8.5 12t5.5 10t2.5 12t1 11.5t0 14.5t-0.5 16q0 59 -42 101t-101 42q-31 0 -65.5 -18t-52.5 -44q-18 26 -52.5 44t-65.5 18q-59 0 -101 -42t-42 -101v-16v-14.5t1 -11.5t2.5 -12t5 -10t8.5 -12h-195q-30 0 -51.5 -30t-21.5 -63v-177q0 -27 20.5 -45.5
t49.5 -24.5v-395q0 -32 19 -51t51 -19h745q31 0 50 19t19 51v395q29 6 49.5 24.5t20.5 45.5v177q0 33 -21.5 63t-51.5 30zM630 845q38 0 65 -27t27 -65q0 -37 -24 -56.5t-64 -19.5h-98l2 76q0 38 27 65t65 27zM302 753q0 38 27 65t65 27t65 -27t28 -65l1 -76h-98
q-39 0 -63.5 19.5t-24.5 56.5zM47 407v186q0 12 8 23.5t18 11.5h415l1 -244h-419q-11 0 -17 6.5t-6 16.5zM122 -30v365l367 2v-418h-349q-18 0 -18 26v25zM902 -55q0 -26 -18 -26h-349v418l367 -2v-390zM978 407q0 -10 -6.5 -16.5t-17.5 -6.5h-419l1 244h415q12 0 19.5 -12
t5.5 -32z" />
    <glyph glyph-name="daifahuo" unicode="&#xe66d;" horiz-adv-x="1217" 
d="M293 -128q-49 0 -88.5 30t-53.5 77l-13 4h-110q-13 0 -20.5 10.5t-7.5 24.5v714q0 67 47 116q19 20 52.5 34t61.5 14h404q66 0 114 -48q41 -41 41 -118v-360h193q28 0 28 -27.5t-28 -27.5h-193v-277h83v28q13 47 48 74.5t83 27.5q49 0 88.5 -30t53.5 -78l3 -22h83v332
q0 52 -16 89t-47 80q-27 36 -70.5 58t-87.5 22h-221v56h221q59 0 114 -23t90 -65q73 -91 73 -237v-332q0 -14 -7.5 -24.5t-20.5 -10.5h-111l-3 -4q-14 -47 -53.5 -77t-88.5 -30t-88.5 30t-52.5 77l10 4h-360q-14 -47 -57.5 -79t-92.5 -32zM293 100.5q-34 -0.5 -58 -24.5
t-24 -58v0q0 -34 24 -58t58 -24t58 24t24 58t-24 58.5t-58 24zM934 100q-34 0 -58 -24t-24 -58v0q0 -34 24 -58t58 -24t58 24t24 58v0q0 34 -24 58t-58 24zM293 168q49 0 88.5 -30t52.5 -78l9 -22h221l-2 694q0 40 -29 69q-5 5 -12 14t-11.5 13.5t-12 8.5t-16.5 4h-443
q-37 0 -60 -34t-23 -77v-692h111v28q14 48 46.5 75t80.5 27z" />
    </font>
</defs>
</svg>
